Blocksync-Regular.ufo
<glyph name="exclam" format="2">
  <advance width="220"/>
  <unicode hex="0021"/>
  <outline>
    <contour>
      <point x="90" y="240" type="curve" smooth="yes"/>
      <point x="130" y="240" type="line" smooth="yes"/>
      <point x="156" y="240"/>
      <point x="161" y="251"/>
      <point x="170" y="280" type="curve" smooth="yes"/>
      <point x="184" y="324"/>
      <point x="200" y="368"/>
      <point x="200" y="412" type="curve" smooth="yes"/>
      <point x="200" y="660" type="line" smooth="yes"/>
      <point x="200" y="690"/>
      <point x="190" y="700"/>
      <point x="160" y="700" type="curve" smooth="yes"/>
      <point x="60" y="700" type="line" smooth="yes"/>
      <point x="30" y="700"/>
      <point x="20" y="690"/>
      <point x="20" y="660" type="curve" smooth="yes"/>
      <point x="20" y="409" type="line" smooth="yes"/>
      <point x="20" y="366"/>
      <point x="36" y="323"/>
      <point x="50" y="280" type="curve" smooth="yes"/>
      <point x="59" y="251"/>
      <point x="64" y="240"/>
    </contour>
    <contour>
      <point x="75" y="0" type="curve" smooth="yes"/>
      <point x="145" y="0" type="line" smooth="yes"/>
      <point x="175" y="0"/>
      <point x="185" y="10"/>
      <point x="185" y="40" type="curve" smooth="yes"/>
      <point x="185" y="110" type="line" smooth="yes"/>
      <point x="185" y="140"/>
      <point x="175" y="150"/>
      <point x="145" y="150" type="curve" smooth="yes"/>
      <point x="75" y="150" type="line" smooth="yes"/>
      <point x="45" y="150"/>
      <point x="35" y="140"/>
      <point x="35" y="110" type="curve" smooth="yes"/>
      <point x="35" y="40" type="line" smooth="yes"/>
      <point x="35" y="10"/>
      <point x="45" y="0"/>
    </contour>
  </outline>
</glyph>
<glyph name="two" format="2">
  <advance width="460"/>
  <unicode hex="0032"/>
  <outline>
    <contour>
      <point x="50" y="0" type="curve" smooth="yes"/>
      <point x="410" y="0" type="line" smooth="yes"/>
      <point x="440" y="0"/>
      <point x="450" y="10"/>
      <point x="450" y="40" type="curve" smooth="yes"/>
      <point x="450" y="110" type="line" smooth="yes"/>
      <point x="450" y="140"/>
      <point x="440" y="150"/>
      <point x="410" y="150" type="curve" smooth="yes"/>
      <point x="218" y="150" type="line" smooth="yes"/>
      <point x="203" y="150"/>
      <point x="198" y="155"/>
      <point x="198" y="170" type="curve" smooth="yes"/>
      <point x="198" y="192"/>
      <point x="222" y="224"/>
      <point x="284" y="267" type="curve" smooth="yes"/>
      <point x="346" y="310"/>
      <point x="450" y="390"/>
      <point x="450" y="510" type="curve" smooth="yes"/>
      <point x="450" y="640"/>
      <point x="375" y="710"/>
      <point x="235" y="710" type="curve" smooth="yes"/>
      <point x="95" y="710"/>
      <point x="20" y="640"/>
      <point x="20" y="500" type="curve" smooth="yes"/>
      <point x="20" y="470"/>
      <point x="30" y="460"/>
      <point x="60" y="460" type="curve" smooth="yes"/>
      <point x="150" y="460" type="line" smooth="yes"/>
      <point x="180" y="460"/>
      <point x="190" y="470"/>
      <point x="190" y="500" type="curve" smooth="yes"/>
      <point x="190" y="510" type="line" smooth="yes"/>
      <point x="190" y="540"/>
      <point x="205" y="560"/>
      <point x="230" y="560" type="curve" smooth="yes"/>
      <point x="255" y="560"/>
      <point x="270" y="540"/>
      <point x="270" y="510" type="curve" smooth="yes"/>
      <point x="270" y="446"/>
      <point x="236" y="416"/>
      <point x="164" y="366" type="curve" smooth="yes"/>
      <point x="46" y="284"/>
      <point x="10" y="191"/>
      <point x="10" y="100" type="curve" smooth="yes"/>
      <point x="10" y="40" type="line" smooth="yes"/>
      <point x="10" y="11"/>
      <point x="20" y="0"/>
    </contour>
  </outline>
</glyph>
<glyph name="three" format="2">
  <advance width="460"/>
  <unicode hex="0033"/>
  <outline>
    <contour>
      <point x="220" y="-10" type="curve" smooth="yes"/>
      <point x="360" y="-10"/>
      <point x="450" y="40"/>
      <point x="450" y="190" type="curve" smooth="yes"/>
      <point x="450" y="252"/>
      <point x="431" y="297"/>
      <point x="377" y="334" type="curve" smooth="yes"/>
      <point x="364" y="343"/>
      <point x="361" y="344"/>
      <point x="361" y="349" type="curve" smooth="yes"/>
      <point x="361" y="354"/>
      <point x="365" y="357"/>
      <point x="377" y="366" type="curve" smooth="yes"/>
      <point x="405" y="387"/>
      <point x="440" y="440"/>
      <point x="440" y="510" type="curve" smooth="yes"/>
      <point x="440" y="650"/>
      <point x="370" y="710"/>
      <point x="230" y="710" type="curve" smooth="yes"/>
      <point x="90" y="710"/>
      <point x="20" y="640"/>
      <point x="20" y="500" type="curve" smooth="yes"/>
      <point x="20" y="470"/>
      <point x="30" y="460"/>
      <point x="60" y="460" type="curve" smooth="yes"/>
      <point x="150" y="460" type="line" smooth="yes"/>
      <point x="180" y="460"/>
      <point x="190" y="470"/>
      <point x="190" y="500" type="curve" smooth="yes"/>
      <point x="190" y="510" type="line" smooth="yes"/>
      <point x="190" y="540"/>
      <point x="205" y="560"/>
      <point x="230" y="560" type="curve" smooth="yes"/>
      <point x="255" y="560"/>
      <point x="270" y="540"/>
      <point x="270" y="510" type="curve" smooth="yes"/>
      <point x="270" y="460"/>
      <point x="260" y="410"/>
      <point x="210" y="410" type="curve" smooth="yes"/>
      <point x="200" y="410" type="line" smooth="yes"/>
      <point x="180" y="410"/>
      <point x="170" y="400"/>
      <point x="170" y="380" type="curve" smooth="yes"/>
      <point x="170" y="320" type="line" smooth="yes"/>
      <point x="170" y="300"/>
      <point x="180" y="290"/>
      <point x="200" y="290" type="curve" smooth="yes"/>
      <point x="210" y="290" type="line" smooth="yes"/>
      <point x="260" y="290"/>
      <point x="260" y="240"/>
      <point x="260" y="190" type="curve" smooth="yes"/>
      <point x="260" y="160"/>
      <point x="250" y="140"/>
      <point x="220" y="140" type="curve" smooth="yes"/>
      <point x="190" y="140"/>
      <point x="180" y="160"/>
      <point x="180" y="190" type="curve" smooth="yes"/>
      <point x="180" y="200" type="line" smooth="yes"/>
      <point x="180" y="230"/>
      <point x="170" y="240"/>
      <point x="140" y="240" type="curve" smooth="yes"/>
      <point x="50" y="240" type="line" smooth="yes"/>
      <point x="20" y="240"/>
      <point x="10" y="230"/>
      <point x="10" y="200" type="curve" smooth="yes"/>
      <point x="10" y="60"/>
      <point x="80" y="-10"/>
    </contour>
  </outline>
</glyph>
<glyph name="four" format="2">
  <advance width="484"/>
  <unicode hex="0034"/>
  <outline>
    <contour>
      <point x="274" y="0" type="curve" smooth="yes"/>
      <point x="374" y="0" type="line" smooth="yes"/>
      <point x="404" y="0"/>
      <point x="414" y="10"/>
      <point x="414" y="40" type="curve" smooth="yes"/>
      <point x="414" y="90" type="line" smooth="yes"/>
      <point x="414" y="105"/>
      <point x="419" y="110"/>
      <point x="434" y="110" type="curve" smooth="yes"/>
      <point x="444" y="110" type="line" smooth="yes"/>
      <point x="464" y="110"/>
      <point x="474" y="120"/>
      <point x="474" y="140" type="curve" smooth="yes"/>
      <point x="474" y="210" type="line" smooth="yes"/>
      <point x="474" y="230"/>
      <point x="464" y="240"/>
      <point x="444" y="240" type="curve" smooth="yes"/>
      <point x="434" y="240" type="line" smooth="yes"/>
      <point x="418" y="240"/>
      <point x="414" y="244"/>
      <point x="414" y="260" type="curve" smooth="yes"/>
      <point x="414" y="660" type="line" smooth="yes"/>
      <point x="414" y="690"/>
      <point x="404" y="700"/>
      <point x="375" y="700" type="curve" smooth="yes"/>
      <point x="263" y="700" type="line" smooth="yes"/>
      <point x="231" y="700"/>
      <point x="220" y="695"/>
      <point x="204" y="660" type="curve" smooth="yes"/>
      <point x="24" y="269" type="line" smooth="yes"/>
      <point x="15" y="249"/>
      <point x="10" y="236"/>
      <point x="10" y="216" type="curve" smooth="yes"/>
      <point x="10" y="150" type="line" smooth="yes"/>
      <point x="10" y="120"/>
      <point x="20" y="110"/>
      <point x="50" y="110" type="curve" smooth="yes"/>
      <point x="214" y="110" type="line" smooth="yes"/>
      <point x="229" y="110"/>
      <point x="234" y="105"/>
      <point x="234" y="90" type="curve" smooth="yes"/>
      <point x="234" y="40" type="line" smooth="yes"/>
      <point x="234" y="10"/>
      <point x="244" y="0"/>
    </contour>
    <contour>
      <point x="170" y="240" type="line" smooth="yes"/>
      <point x="163" y="240"/>
      <point x="159" y="242"/>
      <point x="159" y="249" type="curve" smooth="yes"/>
      <point x="159" y="254"/>
      <point x="162" y="261"/>
      <point x="167" y="274" type="curve" smooth="yes"/>
      <point x="219" y="401" type="line" smooth="yes"/>
      <point x="222" y="409"/>
      <point x="225" y="411"/>
      <point x="228" y="411" type="curve" smooth="yes"/>
      <point x="231" y="411"/>
      <point x="234" y="410"/>
      <point x="234" y="401" type="curve" smooth="yes"/>
      <point x="234" y="260" type="line" smooth="yes"/>
      <point x="234" y="245"/>
      <point x="229" y="240"/>
      <point x="214" y="240" type="curve" smooth="yes"/>
    </contour>
  </outline>
</glyph>
<glyph name="five" format="2">
  <advance width="450"/>
  <unicode hex="0035"/>
  <outline>
    <contour>
      <point x="230" y="-10" type="curve" smooth="yes"/>
      <point x="370" y="-10"/>
      <point x="440" y="60"/>
      <point x="440" y="200" type="curve" smooth="yes"/>
      <point x="440" y="300" type="line" smooth="yes"/>
      <point x="440" y="430"/>
      <point x="380" y="480"/>
      <point x="280" y="480" type="curve" smooth="yes"/>
      <point x="208" y="480"/>
      <point x="197" y="460"/>
      <point x="181" y="460" type="curve" smooth="yes"/>
      <point x="173" y="460"/>
      <point x="170" y="463"/>
      <point x="170" y="475" type="curve" smooth="yes"/>
      <point x="170" y="530" type="line" smooth="yes"/>
      <point x="170" y="545"/>
      <point x="175" y="550"/>
      <point x="190" y="550" type="curve" smooth="yes"/>
      <point x="360" y="550" type="line" smooth="yes"/>
      <point x="390" y="550"/>
      <point x="400" y="560"/>
      <point x="400" y="590" type="curve" smooth="yes"/>
      <point x="400" y="666" type="line" smooth="yes"/>
      <point x="400" y="683"/>
      <point x="390" y="700"/>
      <point x="360" y="700" type="curve" smooth="yes"/>
      <point x="70" y="700" type="line" smooth="yes"/>
      <point x="42" y="700"/>
      <point x="30" y="690"/>
      <point x="30" y="660" type="curve" smooth="yes"/>
      <point x="30" y="340" type="line" smooth="yes"/>
      <point x="30" y="310"/>
      <point x="40" y="300"/>
      <point x="70" y="300" type="curve" smooth="yes"/>
      <point x="160" y="300" type="line" smooth="yes"/>
      <point x="175" y="300"/>
      <point x="180" y="306"/>
      <point x="180" y="320" type="curve" smooth="yes"/>
      <point x="180" y="340"/>
      <point x="190" y="360"/>
      <point x="220" y="360" type="curve" smooth="yes"/>
      <point x="250" y="360"/>
      <point x="260" y="340"/>
      <point x="260" y="320" type="curve" smooth="yes"/>
      <point x="260" y="190" type="line" smooth="yes"/>
      <point x="260" y="160"/>
      <point x="250" y="140"/>
      <point x="220" y="140" type="curve" smooth="yes"/>
      <point x="190" y="140"/>
      <point x="180" y="160"/>
      <point x="180" y="190" type="curve" smooth="yes"/>
      <point x="180" y="200" type="line" smooth="yes"/>
      <point x="180" y="230"/>
      <point x="170" y="240"/>
      <point x="140" y="240" type="curve" smooth="yes"/>
      <point x="50" y="240" type="line" smooth="yes"/>
      <point x="20" y="240"/>
      <point x="10" y="230"/>
      <point x="10" y="200" type="curve" smooth="yes"/>
      <point x="10" y="60"/>
      <point x="90" y="-10"/>
    </contour>
  </outline>
</glyph>
<glyph name="six" format="2">
  <advance width="469"/>
  <unicode hex="0036"/>
  <outline>
    <contour>
      <point x="237" y="-10" type="curve" smooth="yes"/>
      <point x="377" y="-10"/>
      <point x="457" y="60"/>
      <point x="457" y="200" type="curve" smooth="yes"/>
      <point x="457" y="250" type="line" smooth="yes"/>
      <point x="457" y="366"/>
      <point x="390" y="418"/>
      <point x="304" y="418" type="curve" smooth="yes"/>
      <point x="235" y="418"/>
      <point x="220" y="397"/>
      <point x="207" y="397" type="curve" smooth="yes"/>
      <point x="200" y="397"/>
      <point x="197" y="400"/>
      <point x="197" y="413" type="curve" smooth="yes"/>
      <point x="197" y="520" type="line" smooth="yes"/>
      <point x="197" y="550"/>
      <point x="202" y="570"/>
      <point x="232" y="570" type="curve" smooth="yes"/>
      <point x="262" y="570"/>
      <point x="267" y="550"/>
      <point x="267" y="520" type="curve" smooth="yes"/>
      <point x="267" y="490"/>
      <point x="277" y="480"/>
      <point x="307" y="480" type="curve" smooth="yes"/>
      <point x="397" y="480" type="line" smooth="yes"/>
      <point x="427" y="480"/>
      <point x="437" y="490"/>
      <point x="437" y="520" type="curve" smooth="yes"/>
      <point x="437" y="630"/>
      <point x="377" y="710"/>
      <point x="237" y="710" type="curve" smooth="yes"/>
      <point x="97" y="710"/>
      <point x="17" y="640"/>
      <point x="17" y="500" type="curve" smooth="yes"/>
      <point x="17" y="200" type="line" smooth="yes"/>
      <point x="17" y="60"/>
      <point x="97" y="-10"/>
    </contour>
    <contour>
      <point x="237" y="140" type="curve" smooth="yes"/>
      <point x="207" y="140"/>
      <point x="197" y="160"/>
      <point x="197" y="190" type="curve" smooth="yes"/>
      <point x="197" y="250" type="line" smooth="yes"/>
      <point x="197" y="280"/>
      <point x="207" y="300"/>
      <point x="237" y="300" type="curve" smooth="yes"/>
      <point x="267" y="300"/>
      <point x="277" y="280"/>
      <point x="277" y="250" type="curve" smooth="yes"/>
      <point x="277" y="190" type="line" smooth="yes"/>
      <point x="277" y="160"/>
      <point x="267" y="140"/>
    </contour>
  </outline>
</glyph>
<glyph name="seven" format="2">
  <advance width="430"/>
  <unicode hex="0037"/>
  <outline>
    <contour>
      <point x="110" y="0" type="curve" smooth="yes"/>
      <point x="210" y="0" type="line" smooth="yes"/>
      <point x="240" y="0"/>
      <point x="250" y="10"/>
      <point x="250" y="40" type="curve" smooth="yes"/>
      <point x="250" y="207"/>
      <point x="250" y="392"/>
      <point x="382" y="530" type="curve" smooth="yes"/>
      <point x="406" y="556"/>
      <point x="420" y="566"/>
      <point x="420" y="600" type="curve" smooth="yes"/>
      <point x="420" y="660" type="line" smooth="yes"/>
      <point x="420" y="690"/>
      <point x="410" y="700"/>
      <point x="380" y="700" type="curve" smooth="yes"/>
      <point x="50" y="700" type="line" smooth="yes"/>
      <point x="20" y="700"/>
      <point x="10" y="690"/>
      <point x="10" y="660" type="curve" smooth="yes"/>
      <point x="10" y="590" type="line" smooth="yes"/>
      <point x="10" y="560"/>
      <point x="20" y="550"/>
      <point x="50" y="550" type="curve" smooth="yes"/>
      <point x="203" y="550" type="line" smooth="yes"/>
      <point x="213" y="550"/>
      <point x="218" y="548"/>
      <point x="218" y="539" type="curve" smooth="yes"/>
      <point x="218" y="531"/>
      <point x="211" y="523"/>
      <point x="206" y="516" type="curve" smooth="yes"/>
      <point x="112" y="378"/>
      <point x="70" y="206"/>
      <point x="70" y="40" type="curve" smooth="yes"/>
      <point x="70" y="10"/>
      <point x="80" y="0"/>
    </contour>
  </outline>
</glyph>
<glyph name="eight" format="2">
  <advance width="472"/>
  <unicode hex="0038"/>
  <outline>
    <contour>
      <point x="236" y="-10" type="curve" smooth="yes"/>
      <point x="376" y="-10"/>
      <point x="456" y="60"/>
      <point x="456" y="200" type="curve" smooth="yes"/>
      <point x="456" y="230" type="line" smooth="yes"/>
      <point x="456" y="269"/>
      <point x="430" y="336"/>
      <point x="409" y="357" type="curve" smooth="yes"/>
      <point x="401" y="365"/>
      <point x="396" y="371"/>
      <point x="396" y="376" type="curve" smooth="yes"/>
      <point x="396" y="383"/>
      <point x="393" y="391"/>
      <point x="401" y="401" type="curve" smooth="yes"/>
      <point x="427" y="433"/>
      <point x="436" y="460"/>
      <point x="436" y="500" type="curve" smooth="yes"/>
      <point x="436" y="520" type="line" smooth="yes"/>
      <point x="436" y="650"/>
      <point x="376" y="710"/>
      <point x="236" y="710" type="curve" smooth="yes"/>
      <point x="96" y="710"/>
      <point x="36" y="650"/>
      <point x="36" y="520" type="curve" smooth="yes"/>
      <point x="36" y="500" type="line" smooth="yes"/>
      <point x="36" y="457"/>
      <point x="56" y="422"/>
      <point x="72" y="399" type="curve" smooth="yes"/>
      <point x="83" y="384"/>
      <point x="76" y="383"/>
      <point x="76" y="376" type="curve" smooth="yes"/>
      <point x="76" y="370"/>
      <point x="68" y="362"/>
      <point x="60" y="353" type="curve" smooth="yes"/>
      <point x="39" y="327"/>
      <point x="16" y="269"/>
      <point x="16" y="230" type="curve" smooth="yes"/>
      <point x="16" y="200" type="line" smooth="yes"/>
      <point x="16" y="60"/>
      <point x="96" y="-10"/>
    </contour>
    <contour>
      <point x="236" y="450" type="curve" smooth="yes"/>
      <point x="206" y="450"/>
      <point x="196" y="470"/>
      <point x="196" y="500" type="curve" smooth="yes"/>
      <point x="196" y="510" type="line" smooth="yes"/>
      <point x="196" y="540"/>
      <point x="206" y="560"/>
      <point x="236" y="560" type="curve" smooth="yes"/>
      <point x="266" y="560"/>
      <point x="276" y="540"/>
      <point x="276" y="510" type="curve" smooth="yes"/>
      <point x="276" y="500" type="line" smooth="yes"/>
      <point x="276" y="470"/>
      <point x="266" y="450"/>
    </contour>
    <contour>
      <point x="236" y="140" type="curve" smooth="yes"/>
      <point x="206" y="140"/>
      <point x="196" y="160"/>
      <point x="196" y="190" type="curve" smooth="yes"/>
      <point x="196" y="250" type="line" smooth="yes"/>
      <point x="196" y="280"/>
      <point x="206" y="300"/>
      <point x="236" y="300" type="curve" smooth="yes"/>
      <point x="266" y="300"/>
      <point x="276" y="280"/>
      <point x="276" y="250" type="curve" smooth="yes"/>
      <point x="276" y="190" type="line" smooth="yes"/>
      <point x="276" y="160"/>
      <point x="266" y="140"/>
    </contour>
  </outline>
</glyph>
<glyph name="B" format="2">
  <advance width="480"/>
  <unicode hex="0042"/>
  <outline>
    <contour>
      <point x="59" y="0" type="curve" smooth="yes"/>
      <point x="280" y="0" type="line" smooth="yes"/>
      <point x="410" y="0"/>
      <point x="470" y="60"/>
      <point x="470" y="180" type="curve" smooth="yes"/>
      <point x="470" y="210" type="line" smooth="yes"/>
      <point x="470" y="300"/>
      <point x="416" y="337"/>
      <point x="390" y="350" type="curve" smooth="yes"/>
      <point x="385" y="353"/>
      <point x="380" y="355"/>
      <point x="380" y="360" type="curve" smooth="yes"/>
      <point x="380" y="365"/>
      <point x="384" y="366"/>
      <point x="390" y="370" type="curve" smooth="yes"/>
      <point x="413" y="385"/>
      <point x="450" y="420"/>
      <point x="450" y="490" type="curve" smooth="yes"/>
      <point x="450" y="520" type="line" smooth="yes"/>
      <point x="450" y="650"/>
      <point x="370" y="700"/>
      <point x="240" y="700" type="curve" smooth="yes"/>
      <point x="60" y="700" type="line" smooth="yes"/>
      <point x="30" y="700"/>
      <point x="20" y="690"/>
      <point x="20" y="660" type="curve" smooth="yes"/>
      <point x="20" y="40" type="line" smooth="yes"/>
      <point x="20" y="10"/>
      <point x="29" y="0"/>
    </contour>
    <contour>
      <point x="220" y="140" type="line" smooth="yes"/>
      <point x="205" y="140"/>
      <point x="200" y="145"/>
      <point x="200" y="160" type="curve" smooth="yes"/>
      <point x="200" y="270" type="line" smooth="yes"/>
      <point x="200" y="285"/>
      <point x="205" y="290"/>
      <point x="220" y="290" type="curve" smooth="yes"/>
      <point x="240" y="290" type="line" smooth="yes"/>
      <point x="270" y="290"/>
      <point x="280" y="280"/>
      <point x="280" y="230" type="curve" smooth="yes"/>
      <point x="280" y="200" type="line" smooth="yes"/>
      <point x="280" y="150"/>
      <point x="270" y="140"/>
      <point x="240" y="140" type="curve" smooth="yes"/>
    </contour>
    <contour>
      <point x="220" y="430" type="line" smooth="yes"/>
      <point x="205" y="430"/>
      <point x="200" y="435"/>
      <point x="200" y="450" type="curve" smooth="yes"/>
      <point x="200" y="540" type="line" smooth="yes"/>
      <point x="200" y="555"/>
      <point x="205" y="560"/>
      <point x="220" y="560" type="curve" smooth="yes"/>
      <point x="240" y="560" type="line" smooth="yes"/>
      <point x="270" y="560"/>
      <point x="280" y="550"/>
      <point x="280" y="510" type="curve" smooth="yes"/>
      <point x="280" y="480" type="line" smooth="yes"/>
      <point x="280" y="440"/>
      <point x="270" y="430"/>
      <point x="240" y="430" type="curve" smooth="yes"/>
    </contour>
  </outline>
</glyph>
<glyph name="C" format="2">
  <advance width="459"/>
  <unicode hex="0043"/>
  <anchor x="237" y="700" name="top"/>
  <outline>
    <contour>
      <point x="237" y="-10" type="curve" smooth="yes"/>
      <point x="377" y="-10"/>
      <point x="447" y="60"/>
      <point x="447" y="200" type="curve" smooth="yes"/>
      <point x="447" y="245" type="line" smooth="yes"/>
      <point x="447" y="275"/>
      <point x="437" y="285"/>
      <point x="407" y="285" type="curve" smooth="yes"/>
      <point x="317" y="285" type="line" smooth="yes"/>
      <point x="287" y="285"/>
      <point x="277" y="275"/>
      <point x="277" y="245" type="curve" smooth="yes"/>
      <point x="277" y="190" type="line" smooth="yes"/>
      <point x="277" y="160"/>
      <point x="267" y="140"/>
      <point x="237" y="140" type="curve" smooth="yes"/>
      <point x="207" y="140"/>
      <point x="197" y="160"/>
      <point x="197" y="190" type="curve" smooth="yes"/>
      <point x="197" y="510" type="line" smooth="yes"/>
      <point x="197" y="540"/>
      <point x="207" y="560"/>
      <point x="237" y="560" type="curve" smooth="yes"/>
      <point x="267" y="560"/>
      <point x="277" y="540"/>
      <point x="277" y="510" type="curve" smooth="yes"/>
      <point x="277" y="465" type="line" smooth="yes"/>
      <point x="277" y="435"/>
      <point x="287" y="425"/>
      <point x="317" y="425" type="curve" smooth="yes"/>
      <point x="407" y="425" type="line" smooth="yes"/>
      <point x="437" y="425"/>
      <point x="447" y="435"/>
      <point x="447" y="465" type="curve" smooth="yes"/>
      <point x="447" y="500" type="line" smooth="yes"/>
      <point x="447" y="640"/>
      <point x="377" y="710"/>
      <point x="237" y="710" type="curve" smooth="yes"/>
      <point x="97" y="710"/>
      <point x="17" y="640"/>
      <point x="17" y="500" type="curve" smooth="yes"/>
      <point x="17" y="200" type="line" smooth="yes"/>
      <point x="17" y="60"/>
      <point x="97" y="-10"/>
    </contour>
  </outline>
</glyph>
<glyph name="G" format="2">
  <advance width="464"/>
  <unicode hex="0047"/>
  <anchor x="235" y="0" name="bottom"/>
  <anchor x="240" y="700" name="top"/>
  <outline>
    <contour>
      <point x="217" y="-10" type="curve" smooth="yes"/>
      <point x="307" y="-10"/>
      <point x="318" y="35"/>
      <point x="342" y="35" type="curve" smooth="yes"/>
      <point x="362" y="35"/>
      <point x="382" y="0"/>
      <point x="413" y="0" type="curve" smooth="yes"/>
      <point x="437" y="0"/>
      <point x="447" y="10"/>
      <point x="447" y="40" type="curve" smooth="yes"/>
      <point x="447" y="300" type="line" smooth="yes"/>
      <point x="447" y="330"/>
      <point x="436" y="340"/>
      <point x="407" y="340" type="curve" smooth="yes"/>
      <point x="277" y="340" type="line" smooth="yes"/>
      <point x="247" y="340"/>
      <point x="237" y="329"/>
      <point x="237" y="300" type="curve" smooth="yes"/>
      <point x="237" y="260" type="line" smooth="yes"/>
      <point x="237" y="231"/>
      <point x="247" y="220"/>
      <point x="277" y="220" type="curve" smooth="yes"/>
      <point x="297" y="220" type="line" smooth="yes"/>
      <point x="312" y="220"/>
      <point x="317" y="215"/>
      <point x="317" y="200" type="curve" smooth="yes"/>
      <point x="317" y="160"/>
      <point x="297" y="140"/>
      <point x="257" y="140" type="curve" smooth="yes"/>
      <point x="217" y="140"/>
      <point x="197" y="170"/>
      <point x="197" y="210" type="curve" smooth="yes"/>
      <point x="197" y="510" type="line" smooth="yes"/>
      <point x="197" y="540"/>
      <point x="207" y="560"/>
      <point x="237" y="560" type="curve" smooth="yes"/>
      <point x="267" y="560"/>
      <point x="277" y="540"/>
      <point x="277" y="510" type="curve" smooth="yes"/>
      <point x="277" y="465" type="line" smooth="yes"/>
      <point x="277" y="435"/>
      <point x="287" y="425"/>
      <point x="317" y="425" type="curve" smooth="yes"/>
      <point x="407" y="425" type="line" smooth="yes"/>
      <point x="437" y="425"/>
      <point x="447" y="435"/>
      <point x="447" y="465" type="curve" smooth="yes"/>
      <point x="447" y="500" type="line" smooth="yes"/>
      <point x="447" y="640"/>
      <point x="377" y="710"/>
      <point x="237" y="710" type="curve" smooth="yes"/>
      <point x="97" y="710"/>
      <point x="17" y="640"/>
      <point x="17" y="500" type="curve" smooth="yes"/>
      <point x="17" y="200" type="line" smooth="yes"/>
      <point x="17" y="60"/>
      <point x="97" y="-10"/>
    </contour>
  </outline>
</glyph>
<glyph name="H" format="2">
  <advance width="480"/>
  <unicode hex="0048"/>
  <outline>
    <contour>
      <point x="60" y="0" type="curve" smooth="yes"/>
      <point x="160" y="0" type="line" smooth="yes"/>
      <point x="190" y="0"/>
      <point x="200" y="10"/>
      <point x="200" y="40" type="curve" smooth="yes"/>
      <point x="200" y="280" type="line" smooth="yes"/>
      <point x="200" y="295"/>
      <point x="205" y="300"/>
      <point x="220" y="300" type="curve" smooth="yes"/>
      <point x="260" y="300" type="line" smooth="yes"/>
      <point x="275" y="300"/>
      <point x="280" y="295"/>
      <point x="280" y="280" type="curve" smooth="yes"/>
      <point x="280" y="40" type="line" smooth="yes"/>
      <point x="280" y="10"/>
      <point x="290" y="0"/>
      <point x="320" y="0" type="curve" smooth="yes"/>
      <point x="420" y="0" type="line" smooth="yes"/>
      <point x="450" y="0"/>
      <point x="460" y="10"/>
      <point x="460" y="40" type="curve" smooth="yes"/>
      <point x="460" y="660" type="line" smooth="yes"/>
      <point x="460" y="690"/>
      <point x="450" y="700"/>
      <point x="420" y="700" type="curve" smooth="yes"/>
      <point x="320" y="700" type="line" smooth="yes"/>
      <point x="290" y="700"/>
      <point x="280" y="690"/>
      <point x="280" y="660" type="curve" smooth="yes"/>
      <point x="280" y="470" type="line" smooth="yes"/>
      <point x="280" y="455"/>
      <point x="275" y="450"/>
      <point x="260" y="450" type="curve" smooth="yes"/>
      <point x="220" y="450" type="line" smooth="yes"/>
      <point x="205" y="450"/>
      <point x="200" y="455"/>
      <point x="200" y="470" type="curve" smooth="yes"/>
      <point x="200" y="660" type="line" smooth="yes"/>
      <point x="200" y="690"/>
      <point x="190" y="700"/>
      <point x="160" y="700" type="curve" smooth="yes"/>
      <point x="60" y="700" type="line" smooth="yes"/>
      <point x="30" y="700"/>
      <point x="20" y="690"/>
      <point x="20" y="660" type="curve" smooth="yes"/>
      <point x="20" y="40" type="line" smooth="yes"/>
      <point x="20" y="10"/>
      <point x="30" y="0"/>
    </contour>
  </outline>
</glyph>
<glyph name="I" format="2">
  <advance width="220"/>
  <unicode hex="0049"/>
  <anchor x="110" y="700" name="top"/>
  <outline>
    <contour>
      <point x="60" y="0" type="curve" smooth="yes"/>
      <point x="160" y="0" type="line" smooth="yes"/>
      <point x="190" y="0"/>
      <point x="200" y="10"/>
      <point x="200" y="40" type="curve" smooth="yes"/>
      <point x="200" y="660" type="line" smooth="yes"/>
      <point x="200" y="690"/>
      <point x="190" y="700"/>
      <point x="160" y="700" type="curve" smooth="yes"/>
      <point x="60" y="700" type="line" smooth="yes"/>
      <point x="30" y="700"/>
      <point x="20" y="690"/>
      <point x="20" y="660" type="curve" smooth="yes"/>
      <point x="20" y="40" type="line" smooth="yes"/>
      <point x="20" y="10"/>
      <point x="30" y="0"/>
    </contour>
  </outline>
</glyph>
<glyph name="J" format="2">
  <advance width="305"/>
  <unicode hex="004A"/>
  <outline>
    <contour>
      <point x="50" y="0" type="curve" smooth="yes"/>
      <point x="141" y="0" type="line" smooth="yes"/>
      <point x="281" y="0"/>
      <point x="290" y="60"/>
      <point x="290" y="200" type="curve" smooth="yes"/>
      <point x="290" y="660" type="line" smooth="yes"/>
      <point x="290" y="690"/>
      <point x="280" y="700"/>
      <point x="250" y="700" type="curve" smooth="yes"/>
      <point x="150" y="700" type="line" smooth="yes"/>
      <point x="120" y="700"/>
      <point x="110" y="690"/>
      <point x="110" y="660" type="curve" smooth="yes"/>
      <point x="110" y="170" type="line" smooth="yes"/>
      <point x="110" y="155"/>
      <point x="105" y="150"/>
      <point x="90" y="150" type="curve" smooth="yes"/>
      <point x="50" y="150" type="line" smooth="yes"/>
      <point x="20" y="150"/>
      <point x="10" y="140"/>
      <point x="10" y="110" type="curve" smooth="yes"/>
      <point x="10" y="40" type="line" smooth="yes"/>
      <point x="10" y="10"/>
      <point x="20" y="0"/>
    </contour>
  </outline>
</glyph>
<glyph name="M" format="2">
  <advance width="600"/>
  <unicode hex="004D"/>
  <outline>
    <contour>
      <point x="60" y="0" type="curve" smooth="yes"/>
      <point x="150" y="0" type="line" smooth="yes"/>
      <point x="180" y="0"/>
      <point x="190" y="10"/>
      <point x="190" y="40" type="curve" smooth="yes"/>
      <point x="190" y="369" type="line" smooth="yes"/>
      <point x="190" y="383"/>
      <point x="193" y="390"/>
      <point x="203" y="390" type="curve" smooth="yes"/>
      <point x="213" y="390"/>
      <point x="217" y="383"/>
      <point x="220" y="355" type="curve" smooth="yes"/>
      <point x="250" y="40" type="line" smooth="yes"/>
      <point x="252" y="18"/>
      <point x="255" y="0"/>
      <point x="275" y="0" type="curve" smooth="yes"/>
      <point x="325" y="0" type="line" smooth="yes"/>
      <point x="345" y="0"/>
      <point x="348" y="20"/>
      <point x="350" y="40" type="curve" smooth="yes"/>
      <point x="380" y="355" type="line" smooth="yes"/>
      <point x="383" y="383"/>
      <point x="387" y="390"/>
      <point x="396" y="390" type="curve" smooth="yes"/>
      <point x="406" y="390"/>
      <point x="410" y="383"/>
      <point x="410" y="369" type="curve" smooth="yes"/>
      <point x="410" y="40" type="line" smooth="yes"/>
      <point x="410" y="10"/>
      <point x="420" y="0"/>
      <point x="450" y="0" type="curve" smooth="yes"/>
      <point x="540" y="0" type="line" smooth="yes"/>
      <point x="570" y="0"/>
      <point x="580" y="10"/>
      <point x="580" y="40" type="curve" smooth="yes"/>
      <point x="580" y="660" type="line" smooth="yes"/>
      <point x="580" y="690"/>
      <point x="570" y="700"/>
      <point x="540" y="700" type="curve" smooth="yes"/>
      <point x="395" y="700" type="line" smooth="yes"/>
      <point x="370" y="700"/>
      <point x="348" y="689"/>
      <point x="345" y="660" type="curve" smooth="yes"/>
      <point x="314" y="339" type="line" smooth="yes"/>
      <point x="312" y="316"/>
      <point x="308" y="310"/>
      <point x="300" y="310" type="curve" smooth="yes"/>
      <point x="292" y="310"/>
      <point x="288" y="316"/>
      <point x="286" y="339" type="curve" smooth="yes"/>
      <point x="255" y="660" type="line" smooth="yes"/>
      <point x="252" y="688"/>
      <point x="230" y="700"/>
      <point x="205" y="700" type="curve" smooth="yes"/>
      <point x="60" y="700" type="line" smooth="yes"/>
      <point x="30" y="700"/>
      <point x="20" y="690"/>
      <point x="20" y="660" type="curve" smooth="yes"/>
      <point x="20" y="40" type="line" smooth="yes"/>
      <point x="20" y="10"/>
      <point x="30" y="0"/>
    </contour>
  </outline>
</glyph>
<glyph name="N" format="2">
  <advance width="497"/>
  <unicode hex="004E"/>
  <anchor x="235" y="0" name="bottom"/>
  <anchor x="240" y="700" name="top"/>
  <outline>
    <contour>
      <point x="60" y="0" type="curve" smooth="yes"/>
      <point x="150" y="0" type="line" smooth="yes"/>
      <point x="180" y="0"/>
      <point x="190" y="10"/>
      <point x="190" y="40" type="curve" smooth="yes"/>
      <point x="190" y="370" type="line" smooth="yes"/>
      <point x="190" y="386"/>
      <point x="196" y="390"/>
      <point x="203" y="390" type="curve" smooth="yes"/>
      <point x="209" y="390"/>
      <point x="214" y="384"/>
      <point x="216" y="370" type="curve" smooth="yes"/>
      <point x="270" y="40" type="line" smooth="yes"/>
      <point x="276" y="6"/>
      <point x="291" y="0"/>
      <point x="315" y="0" type="curve" smooth="yes"/>
      <point x="437" y="0" type="line" smooth="yes"/>
      <point x="467" y="0"/>
      <point x="477" y="10"/>
      <point x="477" y="40" type="curve" smooth="yes"/>
      <point x="477" y="660" type="line" smooth="yes"/>
      <point x="477" y="690"/>
      <point x="467" y="700"/>
      <point x="437" y="700" type="curve" smooth="yes"/>
      <point x="347" y="700" type="line" smooth="yes"/>
      <point x="317" y="700"/>
      <point x="307" y="690"/>
      <point x="307" y="660" type="curve" smooth="yes"/>
      <point x="307" y="330" type="line" smooth="yes"/>
      <point x="307" y="316"/>
      <point x="303" y="310"/>
      <point x="294" y="310" type="curve" smooth="yes"/>
      <point x="286" y="310"/>
      <point x="283" y="318"/>
      <point x="281" y="330" type="curve" smooth="yes"/>
      <point x="227" y="660" type="line" smooth="yes"/>
      <point x="221" y="695"/>
      <point x="205" y="700"/>
      <point x="180" y="700" type="curve" smooth="yes"/>
      <point x="60" y="700" type="line" smooth="yes"/>
      <point x="30" y="700"/>
      <point x="20" y="690"/>
      <point x="20" y="660" type="curve" smooth="yes"/>
      <point x="20" y="40" type="line" smooth="yes"/>
      <point x="20" y="10"/>
      <point x="30" y="0"/>
    </contour>
  </outline>
</glyph>
<glyph name="P" format="2">
  <advance width="450"/>
  <unicode hex="0050"/>
  <outline>
    <contour>
      <point x="60" y="0" type="curve" smooth="yes"/>
      <point x="160" y="0" type="line" smooth="yes"/>
      <point x="190" y="0"/>
      <point x="200" y="10"/>
      <point x="200" y="40" type="curve" smooth="yes"/>
      <point x="200" y="240" type="line" smooth="yes"/>
      <point x="200" y="255"/>
      <point x="205" y="260"/>
      <point x="220" y="260" type="curve" smooth="yes"/>
      <point x="240" y="260" type="line" smooth="yes"/>
      <point x="370" y="260"/>
      <point x="440" y="310"/>
      <point x="440" y="440" type="curve" smooth="yes"/>
      <point x="440" y="510" type="line" smooth="yes"/>
      <point x="440" y="640"/>
      <point x="370" y="700"/>
      <point x="240" y="700" type="curve" smooth="yes"/>
      <point x="60" y="700" type="line" smooth="yes"/>
      <point x="30" y="700"/>
      <point x="20" y="690"/>
      <point x="20" y="660" type="curve" smooth="yes"/>
      <point x="20" y="40" type="line" smooth="yes"/>
      <point x="20" y="10"/>
      <point x="30" y="0"/>
    </contour>
    <contour>
      <point x="220" y="400" type="line" smooth="yes"/>
      <point x="205" y="400"/>
      <point x="200" y="405"/>
      <point x="200" y="420" type="curve" smooth="yes"/>
      <point x="200" y="530" type="line" smooth="yes"/>
      <point x="200" y="545"/>
      <point x="205" y="550"/>
      <point x="220" y="550" type="curve" smooth="yes"/>
      <point x="230" y="550" type="line" smooth="yes"/>
      <point x="260" y="550"/>
      <point x="270" y="540"/>
      <point x="270" y="500" type="curve" smooth="yes"/>
      <point x="270" y="450" type="line" smooth="yes"/>
      <point x="270" y="410"/>
      <point x="260" y="400"/>
      <point x="230" y="400" type="curve" smooth="yes"/>
    </contour>
  </outline>
</glyph>
<glyph name="Q" format="2">
  <advance width="507"/>
  <unicode hex="0051"/>
  <outline>
    <contour>
      <point x="237" y="-10" type="curve" smooth="yes"/>
      <point x="305" y="-10"/>
      <point x="333" y="30"/>
      <point x="353" y="30" type="curve" smooth="yes"/>
      <point x="377" y="30"/>
      <point x="387" y="0"/>
      <point x="447" y="0" type="curve" smooth="yes"/>
      <point x="457" y="0" type="line" smooth="yes"/>
      <point x="487" y="0"/>
      <point x="497" y="10"/>
      <point x="497" y="40" type="curve" smooth="yes"/>
      <point x="497" y="120" type="line" smooth="yes"/>
      <point x="497" y="150"/>
      <point x="487" y="160"/>
      <point x="457" y="160" type="curve" smooth="yes"/>
      <point x="442" y="160"/>
      <point x="437" y="166"/>
      <point x="437" y="180" type="curve" smooth="yes"/>
      <point x="437" y="200"/>
      <point x="457" y="215"/>
      <point x="457" y="290" type="curve" smooth="yes"/>
      <point x="457" y="500" type="line" smooth="yes"/>
      <point x="457" y="640"/>
      <point x="377" y="710"/>
      <point x="237" y="710" type="curve" smooth="yes"/>
      <point x="97" y="710"/>
      <point x="17" y="640"/>
      <point x="17" y="500" type="curve" smooth="yes"/>
      <point x="17" y="200" type="line" smooth="yes"/>
      <point x="17" y="60"/>
      <point x="97" y="-10"/>
    </contour>
    <contour>
      <point x="237" y="140" type="curve" smooth="yes"/>
      <point x="207" y="140"/>
      <point x="197" y="160"/>
      <point x="197" y="190" type="curve" smooth="yes"/>
      <point x="197" y="510" type="line" smooth="yes"/>
      <point x="197" y="540"/>
      <point x="207" y="560"/>
      <point x="237" y="560" type="curve" smooth="yes"/>
      <point x="267" y="560"/>
      <point x="277" y="540"/>
      <point x="277" y="510" type="curve" smooth="yes"/>
      <point x="277" y="190" type="line" smooth="yes"/>
      <point x="277" y="160"/>
      <point x="267" y="140"/>
    </contour>
  </outline>
</glyph>
<glyph name="S" format="2">
  <advance width="470"/>
  <unicode hex="0053"/>
  <anchor x="240" y="0" name="bottom"/>
  <anchor x="240" y="700" name="top"/>
  <outline>
    <contour>
      <point x="230" y="-10" type="curve" smooth="yes"/>
      <point x="370" y="-10"/>
      <point x="460" y="40"/>
      <point x="460" y="180" type="curve" smooth="yes"/>
      <point x="460" y="283"/>
      <point x="420" y="332"/>
      <point x="317" y="396" type="curve" smooth="yes"/>
      <point x="210" y="463"/>
      <point x="200" y="481"/>
      <point x="200" y="520" type="curve" smooth="yes"/>
      <point x="200" y="545"/>
      <point x="211" y="560"/>
      <point x="236" y="560" type="curve" smooth="yes"/>
      <point x="261" y="560"/>
      <point x="272" y="545"/>
      <point x="272" y="520" type="curve" smooth="yes"/>
      <point x="272" y="510" type="line" smooth="yes"/>
      <point x="272" y="480"/>
      <point x="282" y="470"/>
      <point x="312" y="470" type="curve" smooth="yes"/>
      <point x="412" y="470" type="line" smooth="yes"/>
      <point x="442" y="470"/>
      <point x="452" y="480"/>
      <point x="452" y="510" type="curve" smooth="yes"/>
      <point x="452" y="640"/>
      <point x="377" y="710"/>
      <point x="237" y="710" type="curve" smooth="yes"/>
      <point x="97" y="710"/>
      <point x="20" y="640"/>
      <point x="20" y="520" type="curve" smooth="yes"/>
      <point x="20" y="411"/>
      <point x="83" y="339"/>
      <point x="180" y="276" type="curve" smooth="yes"/>
      <point x="240" y="237"/>
      <point x="280" y="217"/>
      <point x="280" y="180" type="curve" smooth="yes"/>
      <point x="280" y="157"/>
      <point x="269" y="140"/>
      <point x="235" y="140" type="curve" smooth="yes"/>
      <point x="202" y="140"/>
      <point x="190" y="157"/>
      <point x="190" y="180" type="curve" smooth="yes"/>
      <point x="190" y="190" type="line" smooth="yes"/>
      <point x="190" y="220"/>
      <point x="180" y="230"/>
      <point x="150" y="230" type="curve" smooth="yes"/>
      <point x="50" y="230" type="line" smooth="yes"/>
      <point x="20" y="230"/>
      <point x="10" y="220"/>
      <point x="10" y="190" type="curve" smooth="yes"/>
      <point x="10" y="40"/>
      <point x="90" y="-10"/>
    </contour>
  </outline>
</glyph>
<glyph name="T" format="2">
  <advance width="380"/>
  <unicode hex="0054"/>
  <anchor x="190" y="0" name="bottom"/>
  <anchor x="190" y="700" name="top"/>
  <outline>
    <contour>
      <point x="140" y="0" type="curve" smooth="yes"/>
      <point x="240" y="0" type="line" smooth="yes"/>
      <point x="270" y="0"/>
      <point x="280" y="10"/>
      <point x="280" y="40" type="curve" smooth="yes"/>
      <point x="280" y="530" type="line" smooth="yes"/>
      <point x="280" y="545"/>
      <point x="285" y="550"/>
      <point x="300" y="550" type="curve" smooth="yes"/>
      <point x="330" y="550" type="line" smooth="yes"/>
      <point x="360" y="550"/>
      <point x="370" y="560"/>
      <point x="370" y="590" type="curve" smooth="yes"/>
      <point x="370" y="660" type="line" smooth="yes"/>
      <point x="370" y="690"/>
      <point x="360" y="700"/>
      <point x="330" y="700" type="curve" smooth="yes"/>
      <point x="50" y="700" type="line" smooth="yes"/>
      <point x="19" y="700"/>
      <point x="10" y="690"/>
      <point x="10" y="660" type="curve" smooth="yes"/>
      <point x="10" y="590" type="line" smooth="yes"/>
      <point x="10" y="565"/>
      <point x="20" y="550"/>
      <point x="50" y="550" type="curve" smooth="yes"/>
      <point x="80" y="550" type="line" smooth="yes"/>
      <point x="95" y="550"/>
      <point x="100" y="545"/>
      <point x="100" y="530" type="curve" smooth="yes"/>
      <point x="100" y="40" type="line" smooth="yes"/>
      <point x="100" y="10"/>
      <point x="110" y="0"/>
    </contour>
  </outline>
</glyph>
<glyph name="W" format="2">
  <advance width="660"/>
  <unicode hex="0057"/>
  <anchor x="334" y="700" name="top"/>
  <outline>
    <contour>
      <point x="135" y="0" type="curve" smooth="yes"/>
      <point x="252" y="0" type="line" smooth="yes"/>
      <point x="277" y="0"/>
      <point x="290" y="15"/>
      <point x="292" y="40" type="curve" smooth="yes"/>
      <point x="320" y="372" type="line" smooth="yes"/>
      <point x="321" y="384"/>
      <point x="325" y="390"/>
      <point x="330" y="390" type="curve" smooth="yes"/>
      <point x="335" y="390"/>
      <point x="339" y="384"/>
      <point x="340" y="372" type="curve" smooth="yes"/>
      <point x="368" y="40" type="line" smooth="yes"/>
      <point x="370" y="15"/>
      <point x="383" y="0"/>
      <point x="408" y="0" type="curve" smooth="yes"/>
      <point x="525" y="0" type="line" smooth="yes"/>
      <point x="550" y="0"/>
      <point x="561" y="10"/>
      <point x="565" y="40" type="curve" smooth="yes"/>
      <point x="642" y="614" type="line" smooth="yes"/>
      <point x="646" y="647"/>
      <point x="650" y="660"/>
      <point x="650" y="670" type="curve" smooth="yes"/>
      <point x="650" y="690"/>
      <point x="640" y="700"/>
      <point x="620" y="700" type="curve" smooth="yes"/>
      <point x="510" y="700" type="line" smooth="yes"/>
      <point x="480" y="700"/>
      <point x="472" y="690"/>
      <point x="470" y="660" type="curve" smooth="yes"/>
      <point x="445" y="330" type="line" smooth="yes"/>
      <point x="444" y="316"/>
      <point x="440" y="310"/>
      <point x="430" y="310" type="curve" smooth="yes"/>
      <point x="420" y="310"/>
      <point x="416" y="316"/>
      <point x="415" y="330" type="curve" smooth="yes"/>
      <point x="390" y="660" type="line" smooth="yes"/>
      <point x="388" y="682"/>
      <point x="383" y="693"/>
      <point x="369" y="698" type="curve" smooth="yes"/>
      <point x="365" y="699"/>
      <point x="360" y="700"/>
      <point x="355" y="700" type="curve" smooth="yes"/>
      <point x="315" y="700" type="line" smooth="yes"/>
      <point x="310" y="700"/>
      <point x="305" y="699"/>
      <point x="301" y="698" type="curve" smooth="yes"/>
      <point x="287" y="693"/>
      <point x="282" y="682"/>
      <point x="280" y="660" type="curve" smooth="yes"/>
      <point x="255" y="330" type="line" smooth="yes"/>
      <point x="254" y="316"/>
      <point x="250" y="310"/>
      <point x="240" y="310" type="curve" smooth="yes"/>
      <point x="230" y="310"/>
      <point x="226" y="315"/>
      <point x="225" y="330" type="curve" smooth="yes"/>
      <point x="200" y="660" type="line" smooth="yes"/>
      <point x="198" y="691"/>
      <point x="190" y="700"/>
      <point x="160" y="700" type="curve" smooth="yes"/>
      <point x="40" y="700" type="line" smooth="yes"/>
      <point x="20" y="700"/>
      <point x="10" y="690"/>
      <point x="10" y="670" type="curve" smooth="yes"/>
      <point x="10" y="660"/>
      <point x="14" y="647"/>
      <point x="18" y="614" type="curve" smooth="yes"/>
      <point x="95" y="40" type="line" smooth="yes"/>
      <point x="99" y="10"/>
      <point x="110" y="0"/>
    </contour>
  </outline>
</glyph>
<glyph name="X" format="2">
  <advance width="450"/>
  <unicode hex="0058"/>
  <outline>
    <contour>
      <point x="40" y="0" type="curve" smooth="yes"/>
      <point x="150" y="0" type="line" smooth="yes"/>
      <point x="170" y="0"/>
      <point x="187" y="10"/>
      <point x="190" y="30" type="curve" smooth="yes"/>
      <point x="218" y="228" type="line" smooth="yes"/>
      <point x="221" y="246"/>
      <point x="224" y="250"/>
      <point x="230" y="250" type="curve" smooth="yes"/>
      <point x="236" y="250"/>
      <point x="239" y="246"/>
      <point x="242" y="227" type="curve" smooth="yes"/>
      <point x="270" y="30" type="line" smooth="yes"/>
      <point x="273" y="10"/>
      <point x="280" y="0"/>
      <point x="300" y="0" type="curve" smooth="yes"/>
      <point x="410" y="0" type="line" smooth="yes"/>
      <point x="430" y="0"/>
      <point x="440" y="10"/>
      <point x="440" y="30" type="curve" smooth="yes"/>
      <point x="440" y="40"/>
      <point x="435" y="54"/>
      <point x="430" y="75" type="curve" smooth="yes"/>
      <point x="375" y="322" type="line" smooth="yes"/>
      <point x="369" y="350"/>
      <point x="365" y="356"/>
      <point x="365" y="366" type="curve" smooth="yes"/>
      <point x="365" y="376"/>
      <point x="368" y="382"/>
      <point x="375" y="410" type="curve" smooth="yes"/>
      <point x="430" y="625" type="line" smooth="yes"/>
      <point x="435" y="646"/>
      <point x="440" y="660"/>
      <point x="440" y="670" type="curve" smooth="yes"/>
      <point x="440" y="690"/>
      <point x="430" y="700"/>
      <point x="410" y="700" type="curve" smooth="yes"/>
      <point x="300" y="700" type="line" smooth="yes"/>
      <point x="280" y="700"/>
      <point x="273" y="690"/>
      <point x="270" y="670" type="curve" smooth="yes"/>
      <point x="242" y="505" type="line" smooth="yes"/>
      <point x="239" y="486"/>
      <point x="236" y="482"/>
      <point x="230" y="482" type="curve" smooth="yes"/>
      <point x="224" y="482"/>
      <point x="221" y="486"/>
      <point x="218" y="504" type="curve" smooth="yes"/>
      <point x="190" y="670" type="line" smooth="yes"/>
      <point x="187" y="690"/>
      <point x="170" y="700"/>
      <point x="150" y="700" type="curve" smooth="yes"/>
      <point x="40" y="700" type="line" smooth="yes"/>
      <point x="20" y="700"/>
      <point x="10" y="690"/>
      <point x="10" y="670" type="curve" smooth="yes"/>
      <point x="10" y="660"/>
      <point x="14" y="646"/>
      <point x="20" y="625" type="curve" smooth="yes"/>
      <point x="85" y="410" type="line" smooth="yes"/>
      <point x="94" y="382"/>
      <point x="95" y="376"/>
      <point x="95" y="366" type="curve" smooth="yes"/>
      <point x="95" y="356"/>
      <point x="92" y="350"/>
      <point x="85" y="322" type="curve" smooth="yes"/>
      <point x="20" y="75" type="line" smooth="yes"/>
      <point x="14" y="54"/>
      <point x="10" y="40"/>
      <point x="10" y="30" type="curve" smooth="yes"/>
      <point x="10" y="10"/>
      <point x="20" y="0"/>
    </contour>
  </outline>
</glyph>
<glyph name="Y" format="2">
  <advance width="450"/>
  <unicode hex="0059"/>
  <anchor x="225" y="700" name="top"/>
  <outline>
    <contour>
      <point x="175" y="0" type="curve" smooth="yes"/>
      <point x="275" y="0" type="line" smooth="yes"/>
      <point x="305" y="0"/>
      <point x="315" y="10"/>
      <point x="315" y="40" type="curve" smooth="yes"/>
      <point x="315" y="281" type="line" smooth="yes"/>
      <point x="315" y="293"/>
      <point x="316" y="307"/>
      <point x="320" y="318" type="curve" smooth="yes"/>
      <point x="431" y="629" type="line" smooth="yes"/>
      <point x="436" y="642"/>
      <point x="440" y="654"/>
      <point x="440" y="670" type="curve" smooth="yes"/>
      <point x="440" y="690"/>
      <point x="430" y="700"/>
      <point x="410" y="700" type="curve" smooth="yes"/>
      <point x="305" y="700" type="line" smooth="yes"/>
      <point x="277" y="700"/>
      <point x="269" y="690"/>
      <point x="265" y="670" type="curve" smooth="yes"/>
      <point x="240" y="557" type="line" smooth="yes"/>
      <point x="238" y="547"/>
      <point x="233" y="540"/>
      <point x="225" y="540" type="curve" smooth="yes"/>
      <point x="216" y="540"/>
      <point x="212" y="547"/>
      <point x="210" y="557" type="curve" smooth="yes"/>
      <point x="185" y="670" type="line" smooth="yes"/>
      <point x="181" y="690"/>
      <point x="173" y="700"/>
      <point x="145" y="700" type="curve" smooth="yes"/>
      <point x="40" y="700" type="line" smooth="yes"/>
      <point x="20" y="700"/>
      <point x="10" y="687"/>
      <point x="10" y="670" type="curve" smooth="yes"/>
      <point x="10" y="654"/>
      <point x="14" y="642"/>
      <point x="19" y="629" type="curve" smooth="yes"/>
      <point x="130" y="318" type="line" smooth="yes"/>
      <point x="134" y="307"/>
      <point x="135" y="293"/>
      <point x="135" y="281" type="curve" smooth="yes"/>
      <point x="135" y="40" type="line" smooth="yes"/>
      <point x="135" y="10"/>
      <point x="145" y="0"/>
    </contour>
  </outline>
</glyph>
<glyph name="Z" format="2">
  <advance width="434"/>
  <unicode hex="005A"/>
  <anchor x="225" y="700" name="top"/>
  <outline>
    <contour>
      <point x="50" y="0" type="curve" smooth="yes"/>
      <point x="384" y="0" type="line" smooth="yes"/>
      <point x="414" y="0"/>
      <point x="424" y="10"/>
      <point x="424" y="40" type="curve" smooth="yes"/>
      <point x="424" y="110" type="line" smooth="yes"/>
      <point x="424" y="140"/>
      <point x="414" y="150"/>
      <point x="383" y="150" type="curve" smooth="yes"/>
      <point x="236" y="150" type="line" smooth="yes"/>
      <point x="225" y="150"/>
      <point x="218" y="158"/>
      <point x="218" y="167" type="curve" smooth="yes"/>
      <point x="218" y="183"/>
      <point x="226" y="199"/>
      <point x="241" y="227" type="curve" smooth="yes"/>
      <point x="384" y="493" type="line" smooth="yes"/>
      <point x="409" y="540"/>
      <point x="424" y="571"/>
      <point x="424" y="605" type="curve" smooth="yes"/>
      <point x="424" y="660" type="line" smooth="yes"/>
      <point x="424" y="690"/>
      <point x="414" y="700"/>
      <point x="384" y="700" type="curve" smooth="yes"/>
      <point x="51" y="700" type="line" smooth="yes"/>
      <point x="20" y="700"/>
      <point x="10" y="690"/>
      <point x="10" y="660" type="curve" smooth="yes"/>
      <point x="10" y="590" type="line" smooth="yes"/>
      <point x="10" y="565"/>
      <point x="20" y="550"/>
      <point x="50" y="550" type="curve" smooth="yes"/>
      <point x="188" y="550" type="line" smooth="yes"/>
      <point x="211" y="550"/>
      <point x="218" y="547"/>
      <point x="218" y="536" type="curve" smooth="yes"/>
      <point x="218" y="521"/>
      <point x="208" y="507"/>
      <point x="201" y="494" type="curve" smooth="yes"/>
      <point x="48" y="226" type="line" smooth="yes"/>
      <point x="28" y="190"/>
      <point x="10" y="153"/>
      <point x="10" y="118" type="curve" smooth="yes"/>
      <point x="10" y="40" type="line" smooth="yes"/>
      <point x="10" y="10"/>
      <point x="20" y="0"/>
    </contour>
  </outline>
</glyph>
<glyph name="grave" format="2">
  <advance width="311"/>
  <unicode hex="0060"/>
  <outline>
    <contour>
      <point x="215" y="595" type="curve" smooth="yes"/>
      <point x="225" y="595" type="line" smooth="yes"/>
      <point x="235" y="595"/>
      <point x="241" y="601"/>
      <point x="241" y="611" type="curve" smooth="yes"/>
      <point x="241" y="616"/>
      <point x="239" y="621"/>
      <point x="236" y="624" type="curve" smooth="yes"/>
      <point x="167" y="707" type="line" smooth="yes"/>
      <point x="156" y="720"/>
      <point x="150" y="725"/>
      <point x="130" y="725" type="curve" smooth="yes"/>
      <point x="89" y="725" type="line" smooth="yes"/>
      <point x="77" y="725"/>
      <point x="70" y="718"/>
      <point x="70" y="706" type="curve" smooth="yes"/>
      <point x="70" y="701"/>
      <point x="72" y="697"/>
      <point x="75" y="694" type="curve" smooth="yes"/>
      <point x="184" y="605" type="line" smooth="yes"/>
      <point x="195" y="596"/>
      <point x="202" y="595"/>
    </contour>
  </outline>
</glyph>
<glyph name="AE" format="2">
  <advance width="630"/>
  <unicode hex="00C6"/>
  <outline>
    <contour>
      <point x="310" y="0" type="curve" smooth="yes"/>
      <point x="580" y="0" type="line" smooth="yes"/>
      <point x="610" y="0"/>
      <point x="620" y="10"/>
      <point x="620" y="40" type="curve" smooth="yes"/>
      <point x="620" y="110" type="line" smooth="yes"/>
      <point x="620" y="140"/>
      <point x="610" y="150"/>
      <point x="580" y="150" type="curve" smooth="yes"/>
      <point x="470" y="150" type="line" smooth="yes"/>
      <point x="455" y="150"/>
      <point x="450" y="155"/>
      <point x="450" y="170" type="curve" smooth="yes"/>
      <point x="450" y="270" type="line" smooth="yes"/>
      <point x="450" y="285"/>
      <point x="455" y="290"/>
      <point x="470" y="290" type="curve" smooth="yes"/>
      <point x="540" y="290" type="line" smooth="yes"/>
      <point x="570" y="290"/>
      <point x="580" y="300"/>
      <point x="580" y="330" type="curve" smooth="yes"/>
      <point x="580" y="390" type="line" smooth="yes"/>
      <point x="580" y="420"/>
      <point x="570" y="430"/>
      <point x="540" y="430" type="curve" smooth="yes"/>
      <point x="470" y="430" type="line" smooth="yes"/>
      <point x="455" y="430"/>
      <point x="450" y="435"/>
      <point x="450" y="450" type="curve" smooth="yes"/>
      <point x="450" y="530" type="line" smooth="yes"/>
      <point x="450" y="545"/>
      <point x="455" y="550"/>
      <point x="470" y="550" type="curve" smooth="yes"/>
      <point x="580" y="550" type="line" smooth="yes"/>
      <point x="610" y="550"/>
      <point x="620" y="560"/>
      <point x="620" y="590" type="curve" smooth="yes"/>
      <point x="620" y="660" type="line" smooth="yes"/>
      <point x="620" y="690"/>
      <point x="610" y="700"/>
      <point x="580" y="700" type="curve" smooth="yes"/>
      <point x="150" y="700" type="line" smooth="yes"/>
      <point x="120" y="700"/>
      <point x="104" y="690"/>
      <point x="100" y="660" type="curve" smooth="yes"/>
      <point x="20" y="120" type="line" smooth="yes"/>
      <point x="17" y="100"/>
      <point x="10" y="60"/>
      <point x="10" y="40" type="curve" smooth="yes"/>
      <point x="10" y="10"/>
      <point x="20" y="0"/>
      <point x="50" y="0" type="curve" smooth="yes"/>
      <point x="162" y="0" type="line" smooth="yes"/>
      <point x="182" y="0"/>
      <point x="189" y="9"/>
      <point x="192" y="40" type="curve" smooth="yes"/>
      <point x="200" y="120" type="line" smooth="yes"/>
      <point x="202" y="135"/>
      <point x="205" y="140"/>
      <point x="220" y="140" type="curve" smooth="yes"/>
      <point x="250" y="140" type="line" smooth="yes"/>
      <point x="265" y="140"/>
      <point x="270" y="135"/>
      <point x="270" y="120" type="curve" smooth="yes"/>
      <point x="270" y="40" type="line" smooth="yes"/>
      <point x="270" y="10"/>
      <point x="280" y="0"/>
    </contour>
    <contour>
      <point x="210" y="306" type="curve" smooth="yes"/>
      <point x="210" y="313"/>
      <point x="211" y="320"/>
      <point x="212" y="331" type="curve" smooth="yes"/>
      <point x="230" y="530" type="line" smooth="yes"/>
      <point x="231" y="543"/>
      <point x="234" y="550"/>
      <point x="240" y="550" type="curve" smooth="yes"/>
      <point x="246" y="550"/>
      <point x="249" y="543"/>
      <point x="250" y="530" type="curve" smooth="yes"/>
      <point x="268" y="331" type="line" smooth="yes"/>
      <point x="269" y="320"/>
      <point x="270" y="313"/>
      <point x="270" y="306" type="curve" smooth="yes"/>
      <point x="270" y="295"/>
      <point x="265" y="290"/>
      <point x="250" y="290" type="curve" smooth="yes"/>
      <point x="230" y="290" type="line" smooth="yes"/>
      <point x="214" y="290"/>
      <point x="210" y="295"/>
    </contour>
  </outline>
</glyph>
<glyph name="Ccedilla" format="2">
  <advance width="469"/>
  <unicode hex="00C7"/>
  <outline>
    <contour>
      <point x="141" y="-225" type="curve" smooth="yes"/>
      <point x="204" y="-225"/>
      <point x="342" y="-188"/>
      <point x="342" y="-92" type="curve" smooth="yes"/>
      <point x="342" y="-46"/>
      <point x="325" y="-32"/>
      <point x="325" y="-19" type="curve" smooth="yes"/>
      <point x="325" y="-3"/>
      <point x="349" y="9"/>
      <point x="365" y="18" type="curve" smooth="yes"/>
      <point x="425" y="50"/>
      <point x="457" y="111"/>
      <point x="457" y="200" type="curve" smooth="yes"/>
      <point x="457" y="245" type="line" smooth="yes"/>
      <point x="457" y="275"/>
      <point x="447" y="285"/>
      <point x="417" y="285" type="curve" smooth="yes"/>
      <point x="317" y="285" type="line" smooth="yes"/>
      <point x="287" y="285"/>
      <point x="277" y="275"/>
      <point x="277" y="245" type="curve" smooth="yes"/>
      <point x="277" y="190" type="line" smooth="yes"/>
      <point x="277" y="160"/>
      <point x="267" y="140"/>
      <point x="237" y="140" type="curve" smooth="yes"/>
      <point x="207" y="140"/>
      <point x="197" y="160"/>
      <point x="197" y="190" type="curve" smooth="yes"/>
      <point x="197" y="510" type="line" smooth="yes"/>
      <point x="197" y="540"/>
      <point x="207" y="560"/>
      <point x="237" y="560" type="curve" smooth="yes"/>
      <point x="267" y="560"/>
      <point x="277" y="540"/>
      <point x="277" y="510" type="curve" smooth="yes"/>
      <point x="277" y="465" type="line" smooth="yes"/>
      <point x="277" y="435"/>
      <point x="287" y="425"/>
      <point x="317" y="425" type="curve" smooth="yes"/>
      <point x="417" y="425" type="line" smooth="yes"/>
      <point x="447" y="425"/>
      <point x="457" y="435"/>
      <point x="457" y="465" type="curve" smooth="yes"/>
      <point x="457" y="500" type="line" smooth="yes"/>
      <point x="457" y="640"/>
      <point x="377" y="710"/>
      <point x="237" y="710" type="curve" smooth="yes"/>
      <point x="97" y="710"/>
      <point x="17" y="640"/>
      <point x="17" y="500" type="curve" smooth="yes"/>
      <point x="17" y="200" type="line" smooth="yes"/>
      <point x="17" y="108"/>
      <point x="52" y="46"/>
      <point x="115" y="15" type="curve" smooth="yes"/>
      <point x="129" y="8"/>
      <point x="152" y="-1"/>
      <point x="166" y="-14" type="curve" smooth="yes"/>
      <point x="174" y="-22"/>
      <point x="203" y="-27"/>
      <point x="223" y="-29" type="curve" smooth="yes"/>
      <point x="237" y="-30"/>
      <point x="260" y="-72"/>
      <point x="260" y="-85" type="curve" smooth="yes"/>
      <point x="260" y="-118"/>
      <point x="199" y="-123"/>
      <point x="152" y="-123" type="curve" smooth="yes"/>
      <point x="133" y="-123"/>
      <point x="122" y="-119"/>
      <point x="122" y="-150" type="curve" smooth="yes"/>
      <point x="122" y="-207" type="line" smooth="yes"/>
      <point x="122" y="-219"/>
      <point x="129" y="-225"/>
    </contour>
  </outline>
</glyph>
<glyph name="Oslash" format="2">
  <advance width="474"/>
  <unicode hex="00D8"/>
  <outline>
    <contour>
      <point x="237" y="-10" type="curve" smooth="yes"/>
      <point x="377" y="-10"/>
      <point x="457" y="70"/>
      <point x="457" y="200" type="curve" smooth="yes"/>
      <point x="457" y="500" type="line" smooth="yes"/>
      <point x="457" y="630"/>
      <point x="377" y="710"/>
      <point x="237" y="710" type="curve" smooth="yes"/>
      <point x="97" y="710"/>
      <point x="17" y="630"/>
      <point x="17" y="500" type="curve" smooth="yes"/>
      <point x="17" y="200" type="line" smooth="yes"/>
      <point x="17" y="70"/>
      <point x="97" y="-10"/>
    </contour>
    <contour>
      <point x="237" y="140" type="curve" smooth="yes"/>
      <point x="207" y="140"/>
      <point x="197" y="160"/>
      <point x="197" y="190" type="curve" smooth="yes"/>
      <point x="197" y="510" type="line" smooth="yes"/>
      <point x="197" y="540"/>
      <point x="207" y="560"/>
      <point x="237" y="560" type="curve" smooth="yes"/>
      <point x="267" y="560"/>
      <point x="277" y="540"/>
      <point x="277" y="510" type="curve" smooth="yes"/>
      <point x="277" y="190" type="line" smooth="yes"/>
      <point x="277" y="160"/>
      <point x="267" y="140"/>
    </contour>
    <contour>
      <point x="20" y="0" type="line"/>
      <point x="65" y="0" type="line"/>
      <point x="454" y="740" type="line"/>
      <point x="409" y="740" type="line"/>
    </contour>
  </outline>
</glyph>
<glyph name="Thorn" format="2">
  <advance width="450"/>
  <unicode hex="00DE"/>
  <outline>
    <contour>
      <point x="60" y="0" type="curve" smooth="yes"/>
      <point x="160" y="0" type="line" smooth="yes"/>
      <point x="190" y="0"/>
      <point x="200" y="10"/>
      <point x="200" y="40" type="curve" smooth="yes"/>
      <point x="200" y="110" type="line" smooth="yes"/>
      <point x="200" y="125"/>
      <point x="205" y="130"/>
      <point x="220" y="130" type="curve" smooth="yes"/>
      <point x="240" y="130" type="line" smooth="yes"/>
      <point x="370" y="130"/>
      <point x="440" y="180"/>
      <point x="440" y="310" type="curve" smooth="yes"/>
      <point x="440" y="380" type="line" smooth="yes"/>
      <point x="440" y="510"/>
      <point x="370" y="570"/>
      <point x="240" y="570" type="curve" smooth="yes"/>
      <point x="220" y="570" type="line" smooth="yes"/>
      <point x="205" y="570"/>
      <point x="200" y="575"/>
      <point x="200" y="590" type="curve" smooth="yes"/>
      <point x="200" y="660" type="line" smooth="yes"/>
      <point x="200" y="690"/>
      <point x="190" y="700"/>
      <point x="160" y="700" type="curve" smooth="yes"/>
      <point x="60" y="700" type="line" smooth="yes"/>
      <point x="30" y="700"/>
      <point x="20" y="690"/>
      <point x="20" y="660" type="curve" smooth="yes"/>
      <point x="20" y="40" type="line" smooth="yes"/>
      <point x="20" y="10"/>
      <point x="30" y="0"/>
    </contour>
    <contour>
      <point x="200" y="290" type="curve" smooth="yes"/>
      <point x="200" y="400" type="line" smooth="yes"/>
      <point x="200" y="415"/>
      <point x="205" y="420"/>
      <point x="220" y="420" type="curve" smooth="yes"/>
      <point x="230" y="420" type="line" smooth="yes"/>
      <point x="260" y="420"/>
      <point x="270" y="410"/>
      <point x="270" y="370" type="curve" smooth="yes"/>
      <point x="270" y="320" type="line" smooth="yes"/>
      <point x="270" y="280"/>
      <point x="260" y="270"/>
      <point x="230" y="270" type="curve" smooth="yes"/>
      <point x="220" y="270" type="line" smooth="yes"/>
      <point x="205" y="270"/>
      <point x="200" y="275"/>
    </contour>
  </outline>
</glyph>
<glyph name="Eogonek" format="2">
  <advance width="385"/>
  <unicode hex="0118"/>
  <outline>
    <contour>
      <point x="60" y="0" type="curve" smooth="yes"/>
      <point x="196" y="0" type="line" smooth="yes"/>
      <point x="208" y="0"/>
      <point x="214" y="-3"/>
      <point x="214" y="-12" type="curve" smooth="yes"/>
      <point x="214" y="-37"/>
      <point x="178" y="-39"/>
      <point x="178" y="-93" type="curve" smooth="yes"/>
      <point x="178" y="-148"/>
      <point x="232" y="-175"/>
      <point x="330" y="-175" type="curve" smooth="yes"/>
      <point x="344" y="-175"/>
      <point x="350" y="-165"/>
      <point x="350" y="-155" type="curve" smooth="yes"/>
      <point x="350" y="-104" type="line" smooth="yes"/>
      <point x="350" y="-92"/>
      <point x="344" y="-84"/>
      <point x="330" y="-84" type="curve" smooth="yes"/>
      <point x="298" y="-84"/>
      <point x="270" y="-71"/>
      <point x="270" y="-51" type="curve" smooth="yes"/>
      <point x="270" y="-27"/>
      <point x="299" y="0"/>
      <point x="330" y="0" type="curve" smooth="yes"/>
      <point x="360" y="0"/>
      <point x="370" y="10"/>
      <point x="370" y="40" type="curve" smooth="yes"/>
      <point x="370" y="110" type="line" smooth="yes"/>
      <point x="370" y="140"/>
      <point x="360" y="150"/>
      <point x="330" y="150" type="curve" smooth="yes"/>
      <point x="220" y="150" type="line" smooth="yes"/>
      <point x="205" y="150"/>
      <point x="200" y="155"/>
      <point x="200" y="170" type="curve" smooth="yes"/>
      <point x="200" y="270" type="line" smooth="yes"/>
      <point x="200" y="285"/>
      <point x="205" y="290"/>
      <point x="220" y="290" type="curve" smooth="yes"/>
      <point x="290" y="290" type="line" smooth="yes"/>
      <point x="320" y="290"/>
      <point x="330" y="300"/>
      <point x="330" y="330" type="curve" smooth="yes"/>
      <point x="330" y="390" type="line" smooth="yes"/>
      <point x="330" y="420"/>
      <point x="320" y="430"/>
      <point x="290" y="430" type="curve" smooth="yes"/>
      <point x="220" y="430" type="line" smooth="yes"/>
      <point x="205" y="430"/>
      <point x="200" y="435"/>
      <point x="200" y="450" type="curve" smooth="yes"/>
      <point x="200" y="530" type="line" smooth="yes"/>
      <point x="200" y="545"/>
      <point x="205" y="550"/>
      <point x="220" y="550" type="curve" smooth="yes"/>
      <point x="330" y="550" type="line" smooth="yes"/>
      <point x="360" y="550"/>
      <point x="370" y="560"/>
      <point x="370" y="590" type="curve" smooth="yes"/>
      <point x="370" y="660" type="line" smooth="yes"/>
      <point x="370" y="690"/>
      <point x="360" y="700"/>
      <point x="330" y="700" type="curve" smooth="yes"/>
      <point x="60" y="700" type="line" smooth="yes"/>
      <point x="30" y="700"/>
      <point x="20" y="690"/>
      <point x="20" y="660" type="curve" smooth="yes"/>
      <point x="20" y="40" type="line" smooth="yes"/>
      <point x="20" y="10"/>
      <point x="30" y="0"/>
    </contour>
  </outline>
</glyph>
<glyph name="Hbar" format="2">
  <advance width="540"/>
  <unicode hex="0126"/>
  <outline>
    <contour>
      <point x="90" y="0" type="curve" smooth="yes"/>
      <point x="190" y="0" type="line" smooth="yes"/>
      <point x="220" y="0"/>
      <point x="230" y="10"/>
      <point x="230" y="40" type="curve" smooth="yes"/>
      <point x="230" y="280" type="line" smooth="yes"/>
      <point x="230" y="295"/>
      <point x="235" y="300"/>
      <point x="250" y="300" type="curve" smooth="yes"/>
      <point x="290" y="300" type="line" smooth="yes"/>
      <point x="305" y="300"/>
      <point x="310" y="295"/>
      <point x="310" y="280" type="curve" smooth="yes"/>
      <point x="310" y="40" type="line" smooth="yes"/>
      <point x="310" y="10"/>
      <point x="320" y="0"/>
      <point x="350" y="0" type="curve" smooth="yes"/>
      <point x="450" y="0" type="line" smooth="yes"/>
      <point x="480" y="0"/>
      <point x="490" y="10"/>
      <point x="490" y="40" type="curve" smooth="yes"/>
      <point x="490" y="500" type="line"/>
      <point x="510" y="500" type="line" smooth="yes"/>
      <point x="525" y="500"/>
      <point x="530" y="505"/>
      <point x="530" y="520" type="curve" smooth="yes"/>
      <point x="530" y="607" type="line" smooth="yes"/>
      <point x="530" y="622"/>
      <point x="525" y="627"/>
      <point x="510" y="627" type="curve" smooth="yes"/>
      <point x="490" y="627" type="line"/>
      <point x="490" y="660" type="line" smooth="yes"/>
      <point x="490" y="690"/>
      <point x="480" y="700"/>
      <point x="450" y="700" type="curve" smooth="yes"/>
      <point x="350" y="700" type="line" smooth="yes"/>
      <point x="320" y="700"/>
      <point x="310" y="690"/>
      <point x="310" y="660" type="curve" smooth="yes"/>
      <point x="310" y="627" type="line"/>
      <point x="230" y="627" type="line"/>
      <point x="230" y="660" type="line" smooth="yes"/>
      <point x="230" y="690"/>
      <point x="220" y="700"/>
      <point x="190" y="700" type="curve" smooth="yes"/>
      <point x="90" y="700" type="line" smooth="yes"/>
      <point x="60" y="700"/>
      <point x="50" y="690"/>
      <point x="50" y="660" type="curve" smooth="yes"/>
      <point x="50" y="627" type="line"/>
      <point x="30" y="627" type="line" smooth="yes"/>
      <point x="15" y="627"/>
      <point x="10" y="622"/>
      <point x="10" y="607" type="curve" smooth="yes"/>
      <point x="10" y="520" type="line" smooth="yes"/>
      <point x="10" y="505"/>
      <point x="15" y="500"/>
      <point x="30" y="500" type="curve" smooth="yes"/>
      <point x="50" y="500" type="line"/>
      <point x="50" y="40" type="line" smooth="yes"/>
      <point x="50" y="10"/>
      <point x="60" y="0"/>
    </contour>
    <contour>
      <point x="230" y="470" type="curve" smooth="yes"/>
      <point x="230" y="500" type="line"/>
      <point x="310" y="500" type="line"/>
      <point x="310" y="470" type="line" smooth="yes"/>
      <point x="310" y="455"/>
      <point x="305" y="450"/>
      <point x="290" y="450" type="curve" smooth="yes"/>
      <point x="250" y="450" type="line" smooth="yes"/>
      <point x="235" y="450"/>
      <point x="230" y="455"/>
    </contour>
  </outline>
</glyph>
<glyph name="Iogonek" format="2">
  <advance width="220"/>
  <unicode hex="012E"/>
  <outline>
    <contour>
      <point x="50" y="0" type="curve" smooth="yes"/>
      <point x="60" y="0"/>
      <point x="64" y="-4"/>
      <point x="64" y="-10" type="curve" smooth="yes"/>
      <point x="64" y="-30"/>
      <point x="18" y="-38"/>
      <point x="18" y="-92" type="curve" smooth="yes"/>
      <point x="18" y="-147"/>
      <point x="72" y="-174"/>
      <point x="170" y="-174" type="curve" smooth="yes"/>
      <point x="184" y="-174"/>
      <point x="190" y="-164"/>
      <point x="190" y="-154" type="curve" smooth="yes"/>
      <point x="190" y="-103" type="line" smooth="yes"/>
      <point x="190" y="-91"/>
      <point x="184" y="-83"/>
      <point x="170" y="-83" type="curve" smooth="yes"/>
      <point x="138" y="-83"/>
      <point x="110" y="-70"/>
      <point x="110" y="-50" type="curve" smooth="yes"/>
      <point x="110" y="-29"/>
      <point x="128" y="0"/>
      <point x="170" y="0" type="curve" smooth="yes"/>
      <point x="200" y="0"/>
      <point x="210" y="10"/>
      <point x="210" y="40" type="curve" smooth="yes"/>
      <point x="210" y="660" type="line" smooth="yes"/>
      <point x="210" y="690"/>
      <point x="200" y="700"/>
      <point x="170" y="700" type="curve" smooth="yes"/>
      <point x="50" y="700" type="line" smooth="yes"/>
      <point x="20" y="700"/>
      <point x="10" y="690"/>
      <point x="10" y="660" type="curve" smooth="yes"/>
      <point x="10" y="40" type="line" smooth="yes"/>
      <point x="10" y="10"/>
      <point x="20" y="0"/>
    </contour>
  </outline>
</glyph>
<glyph name="OE" format="2">
  <advance width="642"/>
  <unicode hex="0152"/>
  <outline>
    <contour>
      <point x="237" y="-10" type="curve" smooth="yes"/>
      <point x="268" y="-10"/>
      <point x="294" y="0"/>
      <point x="320" y="0" type="curve" smooth="yes"/>
      <point x="587" y="0" type="line" smooth="yes"/>
      <point x="617" y="0"/>
      <point x="627" y="10"/>
      <point x="627" y="40" type="curve" smooth="yes"/>
      <point x="627" y="110" type="line" smooth="yes"/>
      <point x="627" y="140"/>
      <point x="617" y="150"/>
      <point x="587" y="150" type="curve" smooth="yes"/>
      <point x="477" y="150" type="line" smooth="yes"/>
      <point x="462" y="150"/>
      <point x="457" y="155"/>
      <point x="457" y="170" type="curve" smooth="yes"/>
      <point x="457" y="270" type="line" smooth="yes"/>
      <point x="457" y="285"/>
      <point x="462" y="290"/>
      <point x="477" y="290" type="curve" smooth="yes"/>
      <point x="547" y="290" type="line" smooth="yes"/>
      <point x="577" y="290"/>
      <point x="587" y="300"/>
      <point x="587" y="330" type="curve" smooth="yes"/>
      <point x="587" y="390" type="line" smooth="yes"/>
      <point x="587" y="420"/>
      <point x="577" y="430"/>
      <point x="547" y="430" type="curve" smooth="yes"/>
      <point x="477" y="430" type="line" smooth="yes"/>
      <point x="462" y="430"/>
      <point x="457" y="435"/>
      <point x="457" y="450" type="curve" smooth="yes"/>
      <point x="457" y="530" type="line" smooth="yes"/>
      <point x="457" y="545"/>
      <point x="462" y="550"/>
      <point x="477" y="550" type="curve" smooth="yes"/>
      <point x="587" y="550" type="line" smooth="yes"/>
      <point x="617" y="550"/>
      <point x="627" y="560"/>
      <point x="627" y="590" type="curve" smooth="yes"/>
      <point x="627" y="660" type="line" smooth="yes"/>
      <point x="627" y="690"/>
      <point x="617" y="700"/>
      <point x="587" y="700" type="curve" smooth="yes"/>
      <point x="320" y="700" type="line" smooth="yes"/>
      <point x="294" y="700"/>
      <point x="268" y="710"/>
      <point x="237" y="710" type="curve" smooth="yes"/>
      <point x="97" y="710"/>
      <point x="17" y="640"/>
      <point x="17" y="500" type="curve" smooth="yes"/>
      <point x="17" y="200" type="line" smooth="yes"/>
      <point x="17" y="60"/>
      <point x="97" y="-10"/>
    </contour>
    <contour>
      <point x="197" y="190" type="curve" smooth="yes"/>
      <point x="197" y="510" type="line" smooth="yes"/>
      <point x="197" y="540"/>
      <point x="207" y="560"/>
      <point x="237" y="560" type="curve" smooth="yes"/>
      <point x="267" y="560"/>
      <point x="277" y="540"/>
      <point x="277" y="510" type="curve" smooth="yes"/>
      <point x="277" y="190" type="line" smooth="yes"/>
      <point x="277" y="160"/>
      <point x="267" y="140"/>
      <point x="237" y="140" type="curve" smooth="yes"/>
      <point x="207" y="140"/>
      <point x="197" y="160"/>
    </contour>
  </outline>
</glyph>
<glyph name="Scedilla" format="2">
  <advance width="470"/>
  <unicode hex="015E"/>
  <outline>
    <contour>
      <point x="10" y="190" type="curve" smooth="yes"/>
      <point x="10" y="53"/>
      <point x="76" y="0"/>
      <point x="194" y="-9" type="curve"/>
      <point x="211" y="-19"/>
      <point x="219" y="-36"/>
      <point x="219" y="-50" type="curve" smooth="yes"/>
      <point x="219" y="-70"/>
      <point x="191" y="-83"/>
      <point x="159" y="-83" type="curve" smooth="yes"/>
      <point x="145" y="-83"/>
      <point x="139" y="-91"/>
      <point x="139" y="-103" type="curve" smooth="yes"/>
      <point x="139" y="-154" type="line" smooth="yes"/>
      <point x="139" y="-164"/>
      <point x="145" y="-174"/>
      <point x="159" y="-174" type="curve" smooth="yes"/>
      <point x="257" y="-174"/>
      <point x="311" y="-147"/>
      <point x="311" y="-92" type="curve" smooth="yes"/>
      <point x="311" y="-38"/>
      <point x="265" y="-30"/>
      <point x="265" y="-10" type="curve" smooth="yes"/>
      <point x="265" y="-9" type="line"/>
      <point x="385" y="-1"/>
      <point x="460" y="52"/>
      <point x="460" y="180" type="curve" smooth="yes"/>
      <point x="460" y="283"/>
      <point x="420" y="332"/>
      <point x="317" y="396" type="curve" smooth="yes"/>
      <point x="210" y="463"/>
      <point x="200" y="481"/>
      <point x="200" y="520" type="curve" smooth="yes"/>
      <point x="200" y="545"/>
      <point x="211" y="560"/>
      <point x="236" y="560" type="curve" smooth="yes"/>
      <point x="261" y="560"/>
      <point x="272" y="545"/>
      <point x="272" y="520" type="curve" smooth="yes"/>
      <point x="272" y="510" type="line" smooth="yes"/>
      <point x="272" y="480"/>
      <point x="282" y="470"/>
      <point x="312" y="470" type="curve" smooth="yes"/>
      <point x="412" y="470" type="line" smooth="yes"/>
      <point x="442" y="470"/>
      <point x="452" y="480"/>
      <point x="452" y="510" type="curve" smooth="yes"/>
      <point x="452" y="640"/>
      <point x="377" y="710"/>
      <point x="237" y="710" type="curve" smooth="yes"/>
      <point x="97" y="710"/>
      <point x="20" y="640"/>
      <point x="20" y="520" type="curve" smooth="yes"/>
      <point x="20" y="411"/>
      <point x="83" y="339"/>
      <point x="180" y="276" type="curve" smooth="yes"/>
      <point x="240" y="237"/>
      <point x="280" y="217"/>
      <point x="280" y="180" type="curve" smooth="yes"/>
      <point x="280" y="157"/>
      <point x="269" y="140"/>
      <point x="235" y="140" type="curve" smooth="yes"/>
      <point x="202" y="140"/>
      <point x="190" y="157"/>
      <point x="190" y="180" type="curve" smooth="yes"/>
      <point x="190" y="190" type="line" smooth="yes"/>
      <point x="190" y="220"/>
      <point x="180" y="230"/>
      <point x="150" y="230" type="curve" smooth="yes"/>
      <point x="50" y="230" type="line" smooth="yes"/>
      <point x="20" y="230"/>
      <point x="10" y="220"/>
    </contour>
  </outline>
</glyph>
<glyph name="Tcedilla" format="2">
  <advance width="380"/>
  <unicode hex="0162"/>
  <outline>
    <contour>
      <point x="140" y="0" type="curve" smooth="yes"/>
      <point x="182" y="0"/>
      <point x="200" y="-29"/>
      <point x="200" y="-50" type="curve" smooth="yes"/>
      <point x="200" y="-70"/>
      <point x="172" y="-83"/>
      <point x="140" y="-83" type="curve" smooth="yes"/>
      <point x="126" y="-83"/>
      <point x="120" y="-91"/>
      <point x="120" y="-103" type="curve" smooth="yes"/>
      <point x="120" y="-154" type="line" smooth="yes"/>
      <point x="120" y="-164"/>
      <point x="126" y="-174"/>
      <point x="140" y="-174" type="curve" smooth="yes"/>
      <point x="238" y="-174"/>
      <point x="292" y="-147"/>
      <point x="292" y="-92" type="curve" smooth="yes"/>
      <point x="292" y="-38"/>
      <point x="226" y="-30"/>
      <point x="226" y="-10" type="curve" smooth="yes"/>
      <point x="226" y="-4"/>
      <point x="230" y="0"/>
      <point x="240" y="0" type="curve" smooth="yes"/>
      <point x="270" y="0"/>
      <point x="280" y="10"/>
      <point x="280" y="40" type="curve" smooth="yes"/>
      <point x="280" y="530" type="line" smooth="yes"/>
      <point x="280" y="545"/>
      <point x="285" y="550"/>
      <point x="300" y="550" type="curve" smooth="yes"/>
      <point x="330" y="550" type="line" smooth="yes"/>
      <point x="360" y="550"/>
      <point x="370" y="560"/>
      <point x="370" y="590" type="curve" smooth="yes"/>
      <point x="370" y="660" type="line" smooth="yes"/>
      <point x="370" y="690"/>
      <point x="360" y="700"/>
      <point x="330" y="700" type="curve" smooth="yes"/>
      <point x="50" y="700" type="line" smooth="yes"/>
      <point x="19" y="700"/>
      <point x="10" y="690"/>
      <point x="10" y="660" type="curve" smooth="yes"/>
      <point x="10" y="590" type="line" smooth="yes"/>
      <point x="10" y="565"/>
      <point x="20" y="550"/>
      <point x="50" y="550" type="curve" smooth="yes"/>
      <point x="80" y="550" type="line" smooth="yes"/>
      <point x="95" y="550"/>
      <point x="100" y="545"/>
      <point x="100" y="530" type="curve" smooth="yes"/>
      <point x="100" y="40" type="line" smooth="yes"/>
      <point x="100" y="10"/>
      <point x="110" y="0"/>
    </contour>
  </outline>
</glyph>
<glyph name="endash" format="2">
  <advance width="500"/>
  <unicode hex="2013"/>
  <outline>
    <contour>
      <point x="60" y="280" type="curve" smooth="yes"/>
      <point x="440" y="280" type="line" smooth="yes"/>
      <point x="470" y="280"/>
      <point x="480" y="290"/>
      <point x="480" y="320" type="curve" smooth="yes"/>
      <point x="480" y="380" type="line" smooth="yes"/>
      <point x="480" y="410"/>
      <point x="470" y="420"/>
      <point x="440" y="420" type="curve" smooth="yes"/>
      <point x="60" y="420" type="line" smooth="yes"/>
      <point x="30" y="420"/>
      <point x="20" y="410"/>
      <point x="20" y="380" type="curve" smooth="yes"/>
      <point x="20" y="320" type="line" smooth="yes"/>
      <point x="20" y="290"/>
      <point x="30" y="280"/>
    </contour>
  </outline>
</glyph>
<glyph name="bullet" format="2">
  <advance width="340"/>
  <unicode hex="2022"/>
  <outline>
    <contour>
      <point x="170" y="140" type="curve" smooth="yes"/>
      <point x="253" y="140"/>
      <point x="320" y="207"/>
      <point x="320" y="290" type="curve" smooth="yes"/>
      <point x="320" y="373"/>
      <point x="253" y="440"/>
      <point x="170" y="440" type="curve" smooth="yes"/>
      <point x="87" y="440"/>
      <point x="20" y="373"/>
      <point x="20" y="290" type="curve" smooth="yes"/>
      <point x="20" y="207"/>
      <point x="87" y="140"/>
    </contour>
  </outline>
</glyph>
<glyph name="brevecomb.case" format="2">
  <anchor x="120" y="700" name="_top"/>
  <outline>
    <contour>
      <point x="120" y="730" type="curve" smooth="yes"/>
      <point x="200" y="730"/>
      <point x="240" y="770"/>
      <point x="240" y="830" type="curve" smooth="yes"/>
      <point x="240" y="845"/>
      <point x="235" y="850"/>
      <point x="220" y="850" type="curve" smooth="yes"/>
      <point x="176" y="850" type="line" smooth="yes"/>
      <point x="161" y="850"/>
      <point x="156" y="845"/>
      <point x="156" y="830" type="curve" smooth="yes"/>
      <point x="156" y="810"/>
      <point x="140" y="800"/>
      <point x="120" y="800" type="curve" smooth="yes"/>
      <point x="100" y="800"/>
      <point x="84" y="810"/>
      <point x="84" y="830" type="curve" smooth="yes"/>
      <point x="84" y="845"/>
      <point x="79" y="850"/>
      <point x="64" y="850" type="curve" smooth="yes"/>
      <point x="20" y="850" type="line" smooth="yes"/>
      <point x="5" y="850"/>
      <point x="0" y="845"/>
      <point x="0" y="830" type="curve" smooth="yes"/>
      <point x="0" y="770"/>
      <point x="40" y="730"/>
    </contour>
  </outline>
</glyph>
<glyph name="dieresiscomb.case" format="2">
  <anchor x="128" y="700" name="_top"/>
  <anchor x="128" y="851" name="top"/>
  <outline>
    <contour>
      <point x="168" y="740" type="curve" smooth="yes"/>
      <point x="226" y="740" type="line" smooth="yes"/>
      <point x="239" y="740"/>
      <point x="249" y="749"/>
      <point x="249" y="762" type="curve" smooth="yes"/>
      <point x="249" y="830" type="line" smooth="yes"/>
      <point x="249" y="843"/>
      <point x="239" y="853"/>
      <point x="226" y="853" type="curve" smooth="yes"/>
      <point x="168" y="853" type="line" smooth="yes"/>
      <point x="155" y="853"/>
      <point x="146" y="843"/>
      <point x="146" y="830" type="curve" smooth="yes"/>
      <point x="146" y="762" type="line" smooth="yes"/>
      <point x="146" y="749"/>
      <point x="155" y="740"/>
    </contour>
    <contour>
      <point x="29" y="740" type="curve" smooth="yes"/>
      <point x="87" y="740" type="line" smooth="yes"/>
      <point x="100" y="740"/>
      <point x="110" y="749"/>
      <point x="110" y="762" type="curve" smooth="yes"/>
      <point x="110" y="830" type="line" smooth="yes"/>
      <point x="110" y="843"/>
      <point x="100" y="853"/>
      <point x="87" y="853" type="curve" smooth="yes"/>
      <point x="29" y="853" type="line" smooth="yes"/>
      <point x="16" y="853"/>
      <point x="7" y="843"/>
      <point x="7" y="830" type="curve" smooth="yes"/>
      <point x="7" y="762" type="line" smooth="yes"/>
      <point x="7" y="749"/>
      <point x="16" y="740"/>
    </contour>
  </outline>
</glyph>
<glyph name="dotaccentcomb.case" format="2">
  <anchor x="128" y="700" name="_top"/>
  <anchor x="128" y="851" name="top"/>
  <outline>
    <contour>
      <point x="79" y="740" type="curve" smooth="yes"/>
      <point x="176" y="740" type="line" smooth="yes"/>
      <point x="189" y="740"/>
      <point x="199" y="749"/>
      <point x="199" y="762" type="curve" smooth="yes"/>
      <point x="199" y="830" type="line" smooth="yes"/>
      <point x="199" y="843"/>
      <point x="189" y="853"/>
      <point x="176" y="853" type="curve" smooth="yes"/>
      <point x="79" y="853" type="line" smooth="yes"/>
      <point x="66" y="853"/>
      <point x="57" y="843"/>
      <point x="57" y="830" type="curve" smooth="yes"/>
      <point x="57" y="762" type="line" smooth="yes"/>
      <point x="57" y="749"/>
      <point x="66" y="740"/>
    </contour>
  </outline>
</glyph>
<glyph name="gravecomb.case" format="2">
  <anchor x="125" y="700" name="_top"/>
  <anchor x="72" y="879" name="top"/>
  <outline>
    <contour>
      <point x="165" y="740" type="line" smooth="yes"/>
      <point x="180" y="740"/>
      <point x="185" y="750"/>
      <point x="185" y="760" type="curve" smooth="yes"/>
      <point x="185" y="765"/>
      <point x="182" y="771"/>
      <point x="175" y="786" type="curve" smooth="yes"/>
      <point x="145" y="849" type="line" smooth="yes"/>
      <point x="130" y="880"/>
      <point x="125" y="879"/>
      <point x="105" y="879" type="curve" smooth="yes"/>
      <point x="18" y="879" type="line" smooth="yes"/>
      <point x="-2" y="879"/>
      <point x="-12" y="873"/>
      <point x="-12" y="859" type="curve" smooth="yes"/>
      <point x="-12" y="849"/>
      <point x="-6" y="842"/>
      <point x="2" y="831" type="curve" smooth="yes"/>
      <point x="58" y="760" type="line" smooth="yes"/>
      <point x="75" y="739"/>
      <point x="85" y="740"/>
      <point x="95" y="740" type="curve" smooth="yes"/>
    </contour>
  </outline>
</glyph>
<glyph name="hungarumlautcomb.case" format="2">
  <anchor x="120" y="700" name="_top"/>
  <outline>
    <contour>
      <point x="-17" y="740" type="curve" smooth="yes"/>
      <point x="53" y="740" type="line" smooth="yes"/>
      <point x="63" y="740"/>
      <point x="73" y="739"/>
      <point x="90" y="760" type="curve" smooth="yes"/>
      <point x="146" y="831" type="line" smooth="yes"/>
      <point x="154" y="842"/>
      <point x="160" y="849"/>
      <point x="160" y="859" type="curve" smooth="yes"/>
      <point x="160" y="873"/>
      <point x="150" y="879"/>
      <point x="130" y="879" type="curve" smooth="yes"/>
      <point x="43" y="879" type="line" smooth="yes"/>
      <point x="23" y="879"/>
      <point x="18" y="880"/>
      <point x="3" y="849" type="curve" smooth="yes"/>
      <point x="-27" y="786" type="line" smooth="yes"/>
      <point x="-34" y="771"/>
      <point x="-37" y="765"/>
      <point x="-37" y="760" type="curve" smooth="yes"/>
      <point x="-37" y="750"/>
      <point x="-32" y="740"/>
    </contour>
    <contour>
      <point x="183" y="740" type="curve" smooth="yes"/>
      <point x="253" y="740" type="line" smooth="yes"/>
      <point x="263" y="740"/>
      <point x="273" y="739"/>
      <point x="290" y="760" type="curve" smooth="yes"/>
      <point x="346" y="831" type="line" smooth="yes"/>
      <point x="354" y="842"/>
      <point x="360" y="849"/>
      <point x="360" y="859" type="curve" smooth="yes"/>
      <point x="360" y="873"/>
      <point x="350" y="879"/>
      <point x="330" y="879" type="curve" smooth="yes"/>
      <point x="243" y="879" type="line" smooth="yes"/>
      <point x="223" y="879"/>
      <point x="218" y="880"/>
      <point x="203" y="849" type="curve" smooth="yes"/>
      <point x="173" y="786" type="line" smooth="yes"/>
      <point x="166" y="771"/>
      <point x="163" y="765"/>
      <point x="163" y="760" type="curve" smooth="yes"/>
      <point x="163" y="750"/>
      <point x="168" y="740"/>
    </contour>
  </outline>
</glyph>
<glyph name="macroncomb.case" format="2">
  <anchor x="175" y="700" name="_top"/>
  <anchor x="175" y="851" name="top"/>
  <outline>
    <contour>
      <point x="22" y="740" type="curve" smooth="yes"/>
      <point x="327" y="740" type="line" smooth="yes"/>
      <point x="340" y="740"/>
      <point x="350" y="749"/>
      <point x="350" y="762" type="curve" smooth="yes"/>
      <point x="350" y="830" type="line" smooth="yes"/>
      <point x="350" y="843"/>
      <point x="340" y="853"/>
      <point x="327" y="853" type="curve" smooth="yes"/>
      <point x="22" y="853" type="line" smooth="yes"/>
      <point x="9" y="853"/>
      <point x="0" y="843"/>
      <point x="0" y="830" type="curve" smooth="yes"/>
      <point x="0" y="762" type="line" smooth="yes"/>
      <point x="0" y="749"/>
      <point x="9" y="740"/>
    </contour>
  </outline>
</glyph>
<glyph name="tildecomb.case" format="2">
  <anchor x="125" y="700" name="_top"/>
  <anchor x="153" y="890" name="top"/>
  <outline>
    <contour>
      <point x="27" y="750" type="curve" smooth="yes"/>
      <point x="60" y="750"/>
      <point x="76" y="800"/>
      <point x="103" y="800" type="curve" smooth="yes"/>
      <point x="142" y="800"/>
      <point x="159" y="764"/>
      <point x="196" y="764" type="curve" smooth="yes"/>
      <point x="233" y="764"/>
      <point x="266" y="833"/>
      <point x="266" y="850" type="curve" smooth="yes"/>
      <point x="266" y="875"/>
      <point x="263" y="885"/>
      <point x="243" y="885" type="curve" smooth="yes"/>
      <point x="229" y="885"/>
      <point x="198" y="850"/>
      <point x="187" y="850" type="curve" smooth="yes"/>
      <point x="148" y="850"/>
      <point x="132" y="890"/>
      <point x="93" y="890" type="curve" smooth="yes"/>
      <point x="63" y="890"/>
      <point x="2" y="810"/>
      <point x="2" y="790" type="curve" smooth="yes"/>
      <point x="2" y="767"/>
      <point x="8" y="750"/>
    </contour>
  </outline>
</glyph>
